<?xml version="1.0" encoding="UTF-8" standalone="no"?>
<!-- Created with Inkscape (http://www.inkscape.org/) -->
<svg xmlns:svg="http://www.w3.org/2000/svg" xmlns="http://www.w3.org/2000/svg" xmlns:dc="http://purl.org/dc/elements/1.1/" xmlns:cc="http://web.resource.org/cc/" xmlns:rdf="http://www.w3.org/1999/02/22-rdf-syntax-ns#" version="1.0" width="292.39099" height="590.04602" viewBox="0 0 292.391 590.046" id="Layer_1" xml:space="preserve"><defs id="defs186"/>

<g id="g5">
	<path d="M 57.853,296.409 C 59.041,293.745 61.021,290.829 63.793,287.805 C 66.565,284.601 71.497,281.397 74.305,278.049 C 76.933,274.665 78.805,271.821 79.777,268.257 C 80.641,264.693 80.857,260.877 80.029,256.809 L 80.029,256.809 C 83.089,260.589 84.601,264.945 84.565,270.165 C 84.349,275.385 82.801,282.837 79.777,287.805 C 76.645,292.593 70.525,296.986 66.673,299.037 C 62.785,301.016 59.653,301.125 56.881,299.505 L 56.881,299.505 C 57.205,298.497 57.528,297.453 57.853,296.409 L 57.853,296.409 z " style="fill-rule:evenodd;stroke:#000000;stroke-width:0.036;stroke-miterlimit:10" id="path7"/>
	<path d="M 58.32,298.533 C 59.148,295.724 60.624,293.241 62.604,290.685 C 64.584,288.129 67.68,285.933 70.236,283.521 C 72.72,281.001 75.528,278.409 77.4,275.889 C 79.164,273.333 80.172,270.741 80.964,268.257 C 81.612,265.773 81.828,263.253 81.468,260.841 L 81.468,260.841 C 82.692,262.605 83.376,265.053 83.376,268.473 C 83.268,271.821 82.584,277.113 81.468,280.893 C 80.352,284.493 78.804,287.445 76.68,290.181 C 74.34,292.809 70.884,295.221 68.112,296.877 C 65.268,298.425 62.604,299.253 59.976,299.505 L 59.976,299.505 C 64.008,296.769 67.284,293.853 70.236,291.153 C 73.044,288.345 75.204,285.933 77.148,282.801 C 78.984,279.489 80.424,275.853 81.468,271.605 L 81.468,271.605 C 79.956,275.673 78.336,278.985 76.464,282.081 C 74.52,285.033 72.396,287.373 70.236,289.497 C 68.004,291.585 65.232,293.133 63.324,294.717 C 61.309,296.229 59.688,297.453 58.32,298.533 L 58.32,298.533 z " style="fill:#315d2d;fill-rule:evenodd;stroke:#000000;stroke-width:0.036;stroke-miterlimit:10" id="path9"/>
	<path d="M 99.433,64.965 C 94.429,87.429 89.317,108.957 83.557,130.521 C 77.833,151.977 69.517,176.565 65.269,193.197 C 60.949,209.649 59.005,218.397 57.925,229.017 C 56.809,239.565 58.285,248.529 58.321,256.197 C 58.213,263.793 57.997,267.321 57.529,274.701 C 57.025,281.901 56.197,289.281 55.477,299.757 C 54.685,310.161 53.785,322.221 52.633,337.197 C 51.337,352.245 48.925,370.497 48.169,388.892 C 47.341,407.073 47.377,425.792 47.737,445.88 C 47.953,465.896 48.169,484.616 49.789,508.448 C 51.409,532.244 53.713,558.38 57.097,587.828 L 57.097,587.828 L 64.441,586.603 L 64.441,586.603 C 59.581,550.028 56.233,516.62 54.253,484.832 C 52.237,452.9 52.345,419.708 52.633,397.315 C 52.885,374.996 54.577,366.463 55.909,352.135 C 57.097,337.663 58.969,322.579 59.977,311.743 C 60.805,300.978 60.877,296.083 61.597,287.731 C 62.425,279.199 63.973,271.351 64.441,261.271 C 64.693,250.975 62.425,238.735 63.613,227.071 C 64.765,215.407 67.357,207.955 71.785,191.647 C 76.141,175.015 84.601,149.635 90.073,128.971 C 95.545,108.343 100.153,88.723 104.329,69.139 L 104.329,69.139 C 102.708,67.773 101.088,66.369 99.433,64.965 L 99.433,64.965 z " style="fill-rule:evenodd;stroke:#000000;stroke-width:0.036;stroke-miterlimit:10" id="path11"/>
	<path d="M 55.081,508.053 C 54.109,500.205 55.729,492.789 59.545,485.661 C 63.541,478.389 70.237,470.829 78.265,465.321 C 86.221,459.777 97.813,455.241 106.381,453.081 C 114.805,450.993 121.933,450.812 128.341,452.685 L 128.341,452.685 C 124.921,453.873 121.393,455.637 117.361,457.977 C 113.257,460.209 108.397,463.99 104.329,466.545 C 100.153,468.993 96.877,468.417 92.953,473.025 C 88.957,477.741 84.925,488.361 80.713,494.193 C 76.321,499.844 71.569,504.381 67.285,506.829 C 62.964,509.169 58.896,509.529 55.081,508.053 L 55.081,508.053 z " style="fill-rule:evenodd;stroke:#000000;stroke-width:0.036;stroke-miterlimit:10" id="path13"/>
	<path d="M 56.701,504.777 C 56.917,497.684 58.501,491.457 61.597,485.661 C 64.585,479.865 69.841,474.644 75.025,470.289 C 80.137,465.861 85.321,462.297 92.521,459.309 C 99.685,456.286 107.965,453.946 117.757,452.289 L 117.757,452.289 C 105.193,458.085 95.293,463.772 87.229,469.785 C 79.309,475.797 75.097,481.629 70.129,487.677 C 64.98,493.509 60.553,499.161 56.701,504.777 L 56.701,504.777 z " style="fill:#315d2d;fill-rule:evenodd;stroke:#000000;stroke-width:0.036;stroke-miterlimit:10" id="path15"/>
	<path d="M 57.528,506.829 C 61.524,506.793 65.268,505.604 68.904,503.265 C 72.432,500.782 75.456,497.757 79.092,492.681 C 82.62,487.534 86.292,477.417 90.504,472.738 C 94.716,468.021 100.44,466.798 104.328,464.494 C 108.108,462.046 109.944,460.138 113.292,458.374 C 116.532,456.502 120.06,454.882 123.876,453.514 L 123.876,453.514 L 119.376,453.082 L 119.376,453.082 C 108.216,458.41 99.18,463.342 92.124,468.166 C 85.032,472.954 81.396,476.734 77.04,481.594 C 72.54,486.382 68.94,492.323 65.664,496.642 C 62.46,500.925 59.617,504.129 57.528,506.829 L 57.528,506.829 z " style="fill:#315d2d;fill-rule:evenodd;stroke:#000000;stroke-width:0.036;stroke-miterlimit:10" id="path17"/>
	<path d="M 62.856,585.777 C 60.84,572.241 59.148,557.121 57.348,539.733 C 55.548,522.201 53.28,497.361 52.344,482.025 C 51.372,466.724 51.48,462.764 51.408,448.617 C 51.12,434.361 51.12,411.249 51.408,397.461 C 51.66,383.637 52.344,377.949 53.316,366.213 C 54.252,354.225 56.196,337.917 57.348,326.865 C 58.392,315.885 59.148,308.217 59.76,300.801 C 60.228,293.277 60.084,288.237 60.696,282.225 C 61.272,276.105 62.928,270.633 63.324,264.549 C 63.612,258.429 62.82,251.229 62.604,245.721 C 62.28,240.033 61.272,236.937 61.668,231.177 C 61.92,225.489 62.352,221.025 64.764,211.377 C 67.14,201.477 72.36,184.737 75.96,172.677 C 79.488,160.545 82.62,149.709 85.752,139.053 C 88.704,128.289 90.9,120.081 93.852,108.741 C 96.696,97.293 99.72,85.125 102.924,71.409 L 102.924,71.409 L 99.576,69.033 L 99.576,69.033 C 96.12,84.225 93.204,97.293 90.288,109.353 C 87.408,121.161 85.428,128.973 82.404,140.133 C 79.236,151.329 74.916,164.685 71.676,175.917 C 68.292,186.933 64.8,198.957 62.856,206.445 C 60.84,213.861 60.66,215.589 59.976,220.377 C 59.184,224.949 58.356,229.341 58.32,234.669 C 58.248,239.961 59.292,245.721 59.508,252.345 C 59.508,258.861 59.4,265.701 58.788,274.269 C 58.176,282.837 56.844,293.889 56.16,303.393 C 55.44,312.826 54.756,322.078 54.252,330.574 C 53.46,338.926 52.884,345.765 52.128,353.578 C 51.372,361.21 50.508,368.229 49.968,376.725 C 49.32,385.078 48.708,392.925 48.528,404.158 C 48.24,415.389 48.384,432.057 48.528,443.758 C 48.528,455.314 48.672,460.03 49.248,473.314 C 49.824,486.562 51.156,508.846 52.128,522.67 C 52.992,536.314 53.64,544.342 54.756,555.07 C 55.836,565.689 57.06,576.057 58.572,586.317 L 58.572,586.317 C 59.977,586.137 61.417,585.957 62.856,585.777 L 62.856,585.777 z " style="fill:#585524;fill-rule:evenodd;stroke:#000000;stroke-width:0.036;stroke-miterlimit:10" id="path19"/>
	<path d="M 0.037,460.209 C 4.357,477.093 8.821,491.169 13.573,502.977 C 18.253,514.677 20.197,521.122 28.297,530.373 C 36.469,539.553 47.449,548.517 61.921,557.697 L 61.921,557.697 C 61.453,550.821 58.897,542.829 54.253,533.577 C 49.501,524.217 42.949,514.389 33.913,502.148 C 24.805,489.729 13.645,476.121 0.037,460.209 L 0.037,460.209 z " style="fill-rule:evenodd;stroke:#000000;stroke-width:0.036;stroke-miterlimit:10" id="path21"/>
	<path d="M 3.205,466.113 C 11.521,476.589 19.045,486.272 25.921,495.308 C 32.869,504.38 39.349,512.84 44.245,520.113 C 48.889,527.133 51.517,532.533 54.073,537.825 C 56.557,543.045 58.249,547.653 59.149,551.648 L 59.149,551.648 C 47.305,537.321 37.729,524.865 30.025,513.596 C 22.249,502.292 17.713,492.536 13.213,484.617 C 8.677,476.661 5.437,470.541 3.205,466.113 L 3.205,466.113 z " style="fill:#315d2d;fill-rule:evenodd;stroke:#000000;stroke-width:0.036;stroke-miterlimit:10" id="path23"/>
	<path d="M 4.356,470.865 C 7.164,482.493 10.404,492.825 14.76,502.688 C 19.008,512.409 22.32,520.544 29.7,529.184 C 37.044,537.788 46.44,545.852 58.464,553.916 L 58.464,553.916 C 49.428,543.512 41.94,534.152 35.316,524.864 C 28.728,515.647 24.408,508.015 19.296,499.051 C 14.077,489.945 9.145,480.729 4.356,470.865 L 4.356,470.865 z " style="fill:#315d2d;fill-rule:evenodd;stroke:#000000;stroke-width:0.036;stroke-miterlimit:10" id="path25"/>
	<path d="M 63.685,590.025 C 66.493,585.848 68.437,581.096 69.373,575.768 C 70.309,570.332 70.309,564.464 69.373,557.876 L 69.373,557.876 L 64.477,558.668 L 68.545,552.98 L 68.545,552.98 C 66.493,543.98 61.885,537.789 54.721,533.865 C 47.305,530.049 33.553,531.272 25.417,529.761 C 17.389,528.07 11.197,526.269 6.697,524.073 L 6.697,524.073 C 7.201,530.661 10.045,535.989 15.229,540.344 C 20.413,544.592 32.365,544.989 37.621,549.704 C 42.661,554.384 43.885,562.34 46.153,568.028 C 48.421,573.608 48.421,578.864 51.445,582.679 C 54.36,586.389 58.393,588.693 63.685,590.025 L 63.685,590.025 z " style="fill-rule:evenodd;stroke:#000000;stroke-width:0.036;stroke-miterlimit:10" id="path27"/>
	<path d="M 63.685,586.353 C 66.097,583.149 67.717,579.406 68.545,574.977 C 69.337,570.585 69.337,565.509 68.545,559.893 L 68.545,559.893 L 61.633,560.721 L 66.529,552.154 L 66.529,552.154 C 65.737,547.078 63.973,543.189 60.805,539.95 C 57.637,536.71 52.237,534.225 47.809,533.038 C 43.237,531.742 38.017,532.857 33.949,532.642 C 29.845,532.318 27.289,532.283 23.365,531.418 C 19.297,530.374 14.869,529.006 9.937,526.918 L 9.937,526.918 C 12.925,530.554 17.173,533.578 22.537,535.99 C 27.937,538.366 36.721,538.689 42.085,541.282 C 47.233,543.729 50.797,546.07 53.893,550.929 C 56.845,555.789 58.825,564.07 60.409,570.081 C 61.957,576.021 63.181,581.349 63.685,586.353 L 63.685,586.353 z " style="fill:#315d2d;fill-rule:evenodd;stroke:#000000;stroke-width:0.036;stroke-miterlimit:10" id="path29"/>
	<path d="M 62.46,587.577 C 60.984,580.125 59.4,573.392 57.564,567.237 C 55.62,560.936 54.648,554.852 51.444,550.533 C 48.168,546.213 42.588,543.585 38.448,541.677 C 34.236,539.734 30.492,540.417 26.64,539.157 C 22.716,537.825 18.036,535.665 15.228,533.936 C 12.384,532.172 10.44,530.336 9.54,528.573 L 9.54,528.573 C 10.548,533.361 12.852,536.888 16.056,539.552 C 19.332,542.036 25.092,542.54 29.052,544.124 C 32.904,545.636 36.576,546.895 39.24,549.02 C 41.688,551.144 43.128,553.916 44.532,557.048 C 45.972,560.144 46.224,563.025 47.808,567.344 C 49.248,571.628 51.048,578.865 53.496,582.392 C 55.909,585.813 58.896,587.396 62.46,587.577 L 62.46,587.577 z " style="fill:#315d2d;fill-rule:evenodd;stroke:#000000;stroke-width:0.036;stroke-miterlimit:10" id="path31"/>
	<path d="M 72.937,33.969 C 69.553,29.613 66.997,25.653 65.269,21.945 C 63.433,18.129 62.389,14.205 62.425,11.685 C 62.389,9.057 64.261,7.329 65.269,6.645 C 66.277,5.853 67.249,6.069 68.329,7.293 L 68.329,7.293 C 68.509,3.153 68.977,0.705 69.877,0.093 C 70.813,-0.555 72.181,3.225 73.585,3.369 C 74.809,3.369 76.717,-0.051 77.509,0.309 C 78.121,0.489 77.761,2.973 77.941,5.133 C 78.157,7.293 78.445,10.101 78.805,13.413 L 78.805,13.413 C 79.273,10.749 80.065,8.841 80.785,7.545 C 81.469,6.249 82.477,5.709 83.413,5.781 L 83.413,5.781 C 83.053,2.145 83.485,0.561 84.709,0.741 C 85.897,1.065 88.885,4.665 90.613,7.077 C 92.269,9.273 93.709,11.613 94.789,14.097 L 94.789,14.097 C 94.717,9.597 95.149,7.365 96.085,6.861 C 96.949,6.393 99.253,9.921 100.225,11.469 C 101.089,12.945 101.737,14.349 101.773,15.825 L 101.773,15.825 C 103.033,16.041 104.437,16.509 106.129,17.373 C 107.713,18.165 109.585,19.209 111.601,20.649 L 111.601,20.649 C 114.661,16.365 117.217,14.133 119.269,13.413 C 121.285,12.765 122.689,13.809 123.625,16.689 L 123.625,16.689 C 125.893,17.409 127.081,18.093 126.901,18.885 C 126.685,19.677 124.381,20.577 122.761,21.297 C 120.997,21.765 117.757,21.549 117.073,22.593 C 116.389,23.601 116.965,25.329 118.801,27.633 L 118.801,27.633 C 121.033,24.213 122.545,22.413 123.625,21.945 C 124.525,21.477 123.985,24.897 124.921,25.005 C 125.821,24.897 127.981,21.909 129.313,22.161 C 130.645,22.449 131.689,25.077 132.589,26.985 C 133.309,28.857 133.669,30.765 133.669,33.105 L 133.669,33.105 C 135.325,29.433 137.233,26.805 139.789,25.221 C 142.237,23.529 145.333,23.601 148.537,23.493 C 151.705,23.313 156.997,23.277 158.581,24.357 C 160.021,25.329 158.869,28.173 157.502,29.397 C 156.062,30.369 151.31,29.649 150.05,31.125 C 148.682,32.637 148.466,34.941 149.402,38.325 L 149.402,38.325 C 152.715,35.264 155.631,33.177 158.15,31.773 C 160.598,30.297 163.658,29.073 164.27,30.045 C 164.774,30.909 163.874,33.357 161.426,37.245 L 161.426,37.245 C 167.438,37.605 171.11,38.145 172.586,39.009 C 173.953,39.873 173.126,40.917 169.957,42.285 L 169.957,42.285 C 175.285,42.573 178.058,43.473 178.273,45.129 C 178.418,46.785 176.005,48.909 171.037,51.897 L 171.037,51.897 C 176.834,51.429 180.037,51.573 181.081,52.329 C 181.981,53.085 180.577,54.345 176.726,56.253 L 176.726,56.253 C 180.434,59.817 182.09,62.445 181.55,64.137 C 181.01,65.793 178.382,66.513 173.666,66.297 L 173.666,66.297 C 179.102,69.249 181.441,71.805 181.081,73.965 C 180.613,76.125 177.266,77.673 171.037,79.005 L 171.037,79.005 C 170.281,81.165 169.309,82.353 167.977,82.281 C 166.645,82.173 165.097,81.093 163.189,78.753 L 163.189,78.753 L 158.797,78.753 L 158.797,78.753 C 159.337,82.893 159.265,86.133 158.58,88.617 C 157.824,91.029 156.492,92.793 154.44,93.621 L 154.44,93.621 C 155.592,96.069 155.377,96.753 153.793,95.817 C 152.064,94.809 149.148,92.109 144.612,87.717 L 144.612,87.717 C 145.764,94.017 146.196,97.473 145.908,98.229 C 145.512,98.877 143.82,93.549 142.632,92.109 C 141.48,90.633 140.04,89.805 138.708,89.481 L 138.708,89.481 C 139.788,94.341 139.932,98.805 139.14,103.017 C 138.24,107.229 135.468,113.709 133.884,114.393 C 132.264,114.897 130.932,112.197 129.744,106.293 L 129.744,106.293 C 128.844,107.589 127.8,107.769 126.468,106.977 C 125.064,106.149 123.552,104.205 121.644,101.289 L 121.644,101.289 C 118.224,105.213 115.992,107.157 114.66,106.977 C 113.328,106.689 114.48,103.593 113.796,100.173 C 112.968,96.681 111.708,92.073 109.872,86.205 L 109.872,86.205 C 110.016,92.649 109.908,95.925 109.404,96.033 C 108.828,96.141 108,93.081 106.776,86.853 L 106.776,86.853 C 107.028,91.245 107.028,93.945 106.776,94.953 C 106.452,95.889 105.876,95.205 105.048,92.757 L 105.048,92.757 C 103.104,93.585 101.772,94.485 100.908,95.601 C 100.044,96.645 100.692,99.453 99.792,99.309 C 98.784,99.093 97.236,97.545 95.004,94.521 L 95.004,94.521 C 95.112,96.537 94.608,98.805 93.888,101.721 C 93.132,104.529 92.412,108.453 90.18,111.549 C 87.696,114.501 81.684,119.937 79.92,119.649 C 78.12,119.217 77.976,115.833 79.488,109.353 L 79.488,109.353 C 75.06,113.025 72.288,114.681 71.172,114.609 C 69.948,114.393 70.38,112.449 72.468,108.489 L 72.468,108.489 C 69.588,110.073 67.68,110.613 66.6,110.253 C 65.52,109.857 65.412,108.417 66.132,106.077 L 66.132,106.077 C 63.612,109.389 61.92,111.189 60.912,111.333 C 59.832,111.333 60.552,108.129 60.012,106.977 C 59.256,105.897 55.404,108.309 57.204,104.781 C 59.004,101.001 63.54,94.665 70.956,85.089 L 70.956,85.089 C 68.76,84.261 67.716,83.397 67.68,82.497 C 67.644,81.525 68.616,80.625 70.74,79.653 L 70.74,79.653 C 62.784,78.897 57.276,78.213 54.36,77.457 C 51.3,76.521 53.676,75.765 53.028,75.045 C 52.308,74.397 50.256,74.217 50.616,73.533 C 50.94,72.669 54.864,71.553 55.008,70.041 C 54.936,68.385 49.788,65.073 50.832,64.137 C 51.912,63.165 55.44,63.309 61.56,64.569 L 61.56,64.569 C 58.5,60.717 56.916,57.585 56.952,55.173 C 56.916,52.653 58.5,50.997 61.56,49.917 L 61.56,49.917 C 60.912,46.929 60.624,44.913 60.696,43.581 C 60.696,42.249 61.056,41.745 61.776,42.069 L 61.776,42.069 C 50.04,38.757 42.804,36.273 39.924,34.617 C 37.044,32.961 38.52,31.989 44.496,31.989 L 44.496,31.989 C 43.092,30.405 42.516,29.217 42.768,28.281 C 43.02,27.345 44.064,26.697 46.044,26.337 L 46.044,26.337 C 43.308,22.377 42.48,20.361 43.416,19.749 C 44.388,19.173 47.304,20.145 51.732,23.061 C 56.088,25.905 61.776,30.441 69.192,36.813 L 69.192,36.813 C 69.336,36.237 69.66,35.769 70.308,35.265 C 70.957,34.761 71.785,34.329 72.937,33.969 L 72.937,33.969 z M 83.197,48.189 L 78.373,42.501 L 78.373,42.501 C 78.913,45.525 79.525,47.397 80.353,48.405 C 81.181,49.341 82.081,49.269 83.197,48.189 L 83.197,48.189 z M 98.064,38.325 C 98.064,35.337 97.92,32.565 97.632,29.613 C 97.272,26.661 96.804,23.745 96.084,20.865 L 96.084,20.865 C 97.776,24.249 98.964,26.985 99.792,28.929 C 100.512,30.873 100.584,31.197 100.692,32.673 C 100.728,34.149 100.62,35.769 100.224,37.677 L 100.224,37.677 C 99.504,37.893 98.785,38.109 98.064,38.325 L 98.064,38.325 z M 124.489,43.149 C 126.397,40.665 127.585,39.477 128.197,39.441 C 128.629,39.441 127.333,42.357 127.765,42.933 C 128.233,43.329 131.077,41.421 131.041,42.069 C 130.897,42.645 129.637,44.049 127.117,46.425 L 127.117,46.425 C 126.721,45.489 126.361,44.805 126.037,44.661 C 125.713,44.409 125.065,45.345 124.921,45.129 C 124.633,44.841 124.489,44.229 124.489,43.149 L 124.489,43.149 z M 131.94,55.389 C 134.748,54.489 137.628,53.445 140.436,52.113 C 143.28,50.709 145.908,49.305 148.752,47.505 L 148.752,47.505 C 146.34,49.989 143.928,52.149 141.12,53.841 C 138.312,55.533 135.324,56.901 132.156,57.801 L 132.156,57.801 C 132.084,57.009 132.013,56.217 131.94,55.389 L 131.94,55.389 z " style="fill-rule:evenodd;stroke:#000000;stroke-width:0.036;stroke-miterlimit:10" id="path33"/>
	<path d="M 82.765,51.465 C 81.181,51.105 79.993,49.989 79.057,47.973 C 78.049,45.849 77.293,41.565 77.077,39.441 C 76.753,37.137 78.373,35.625 77.509,35.049 C 76.573,34.473 73.333,35.193 71.821,35.949 C 70.201,36.633 69.085,37.929 68.329,39.009 C 67.573,39.981 67.213,40.881 67.249,41.853 L 67.249,41.853 C 64.405,41.061 62.749,41.277 61.993,42.501 C 61.273,43.617 61.561,46.749 62.857,48.837 C 64.117,50.817 68.797,53.913 68.977,54.525 C 68.869,54.885 64.513,52.257 62.857,51.897 C 61.201,51.429 59.905,51.645 59.365,52.545 C 58.753,53.481 58.753,55.317 59.365,57.369 C 59.977,59.313 61.093,61.689 62.857,64.353 L 62.857,64.353 C 68.401,63.705 72.505,62.985 75.313,62.589 C 77.977,62.049 79.417,62.013 79.489,61.509 C 79.525,60.825 75.421,60.213 75.781,59.529 C 75.997,58.917 80.677,58.665 81.217,57.801 C 81.685,56.829 79.381,54.741 78.589,53.625 C 77.617,52.329 75.673,50.529 76.213,50.565 C 76.789,50.601 80.677,53.589 81.901,53.841 C 82.98,53.877 83.269,53.265 82.765,51.465 L 82.765,51.465 z " style="fill:#fde005;fill-rule:evenodd;stroke:#000000;stroke-width:0.036;stroke-miterlimit:10" id="path35"/>
	<path d="M 67.896,37.029 C 65.412,34.941 62.856,32.781 60.228,30.693 C 57.492,28.425 54.36,25.725 51.948,24.141 C 49.464,22.521 45.936,20.577 45.396,21.081 C 44.748,21.513 45.576,23.529 48.024,26.985 L 48.024,26.985 C 46.008,26.841 44.964,27.273 44.748,28.281 C 44.496,29.181 45.144,30.693 46.692,32.673 L 46.692,32.673 C 43.74,32.565 41.94,32.709 41.436,33.105 C 40.824,33.393 41.436,33.969 43.416,34.833 C 45.36,35.733 49.86,36.957 53.028,38.109 C 56.088,39.153 59.076,40.053 61.992,40.953 L 61.992,40.953 C 63.144,40.485 64.044,40.197 64.836,40.089 C 65.628,39.981 66.168,40.053 66.6,40.305 L 66.6,40.305 C 66.672,39.585 66.816,38.793 67.032,38.326 C 67.249,37.749 67.537,37.317 67.896,37.029 L 67.896,37.029 z " style="fill:#fde005;fill-rule:evenodd;stroke:#000000;stroke-width:0.036;stroke-miterlimit:10" id="path37"/>
	<path d="M 80.785,43.581 L 77.941,38.793 L 77.941,38.793 C 78.841,36.849 79.309,35.553 79.057,34.617 C 78.769,33.68 77.545,33.393 76.645,33.321 C 75.745,33.105 74.845,33.177 73.801,33.537 L 73.801,33.537 C 71.065,29.757 68.977,26.085 67.249,22.377 C 65.413,18.525 63.397,12.729 63.541,11.253 C 63.721,9.777 68.005,14.097 68.329,13.665 C 68.437,13.089 64.729,9.345 64.837,8.409 C 64.873,7.581 66.781,7.581 68.761,8.409 C 70.633,9.129 73.909,10.461 76.213,12.549 C 78.373,14.637 80.065,17.661 82.117,20.649 C 84.097,23.457 86.761,26.373 88.453,29.829 C 90.073,33.177 91.189,36.885 91.945,40.953 L 91.945,40.953 C 89.713,36.921 88.453,35.157 87.769,35.265 C 87.085,35.337 88.669,41.097 88.201,41.853 C 87.661,42.501 84.925,39.081 84.709,39.657 C 84.457,40.197 86.617,44.877 86.473,45.345 C 86.149,45.597 83.917,42.429 82.981,42.069 C 82.081,41.745 81.217,42.249 80.785,43.581 L 80.785,43.581 z " style="fill:#fde005;fill-rule:evenodd;stroke:#000000;stroke-width:0.036;stroke-miterlimit:10" id="path39"/>
	<path d="M 69.409,7.077 C 69.337,4.341 69.697,2.793 70.093,2.289 C 70.489,1.821 71.137,3.513 72.037,4.017 C 72.901,4.305 73.981,4.737 74.881,4.485 C 75.673,4.053 76.213,1.101 76.645,2.289 C 76.969,3.585 77.113,6.609 77.077,11.901 L 77.077,11.901 C 75.565,10.461 74.233,9.417 72.937,8.625 C 71.568,7.761 70.524,7.293 69.409,7.077 L 69.409,7.077 z " style="fill:#fde005;fill-rule:evenodd;stroke:#000000;stroke-width:0.036;stroke-miterlimit:10" id="path41"/>
	<path d="M 92.161,35.949 C 91.081,32.889 90.937,31.521 91.729,31.989 C 92.521,32.385 94.213,34.617 96.949,38.541 L 96.949,38.541 C 96.445,33.357 96.013,29.361 95.653,26.121 C 95.329,22.917 95.221,21.441 94.789,19.317 C 94.105,17.049 93.133,14.817 92.161,12.765 C 91.117,10.605 90.325,8.337 89.101,6.645 C 87.913,4.809 85.501,2.505 84.925,2.505 C 84.241,2.433 84.601,4.665 85.177,6.429 C 85.681,8.121 86.689,9.957 88.201,12.333 L 88.201,12.333 C 86.725,11.253 85.681,10.101 84.925,9.273 C 84.169,8.409 83.809,7.473 83.845,6.861 L 83.845,6.861 C 82.693,7.797 81.865,8.913 81.217,10.353 C 80.569,11.793 80.209,13.269 80.137,15.177 L 80.137,15.177 C 82.045,17.085 84.061,19.785 86.041,23.277 C 88.021,26.733 90.108,30.909 92.161,35.949 L 92.161,35.949 z " style="fill:#fde005;fill-rule:evenodd;stroke:#000000;stroke-width:0.036;stroke-miterlimit:10" id="path43"/>
	<path d="M 101.557,36.813 C 101.917,34.437 101.917,32.133 101.557,30.045 C 101.017,27.957 100.081,25.941 99.145,24.141 C 98.245,22.341 97.345,20.613 96.301,19.101 L 96.301,19.101 C 96.049,15.753 95.977,13.377 96.085,11.685 C 96.121,9.993 96.265,8.661 96.949,9.057 C 97.561,9.417 99.037,12.189 100.009,13.881 C 100.981,15.465 101.953,16.041 102.637,18.669 C 103.177,21.369 103.285,26.445 103.501,29.613 C 103.645,32.601 103.645,35.049 103.501,36.813 L 103.501,36.813 C 102.853,36.813 102.205,36.813 101.557,36.813 L 101.557,36.813 z " style="fill:#fde005;fill-rule:evenodd;stroke:#000000;stroke-width:0.036;stroke-miterlimit:10" id="path45"/>
	<path d="M 110.736,36.813 C 111.888,33.393 112.464,30.621 112.464,28.065 C 112.428,25.437 111.96,23.457 110.52,21.729 C 108.936,20.001 106.452,18.813 103.068,18.021 L 103.068,18.021 C 103.968,21.045 104.508,23.961 104.832,27.201 C 105.084,30.369 105.084,33.429 104.832,36.813 L 104.832,36.813 C 106.416,33.213 107.388,31.557 107.892,31.557 C 108.252,31.593 106.992,36.057 107.46,37.029 C 107.929,37.893 108.973,37.821 110.736,36.813 L 110.736,36.813 z " style="fill:#fde005;fill-rule:evenodd;stroke:#000000;stroke-width:0.036;stroke-miterlimit:10" id="path47"/>
	<path d="M 121.212,40.521 C 121.896,38.181 121.896,36.057 121.212,33.753 C 120.456,31.377 117.756,28.749 116.856,26.985 C 115.848,25.257 115.452,24.321 115.524,23.493 C 115.416,22.521 115.812,21.837 116.856,21.297 C 117.936,20.721 120.744,20.289 122.076,20.001 C 123.336,19.605 124.164,19.029 124.272,18.669 C 124.164,18.201 122.688,17.949 122.076,17.373 C 121.5,16.689 121.32,14.745 120.564,14.745 C 119.592,14.601 118.224,15.753 116.856,16.941 C 115.416,18.021 113.976,19.749 112.248,21.729 L 112.248,21.729 C 113.4,24.141 113.94,26.481 114.012,29.145 C 114.012,31.701 113.544,34.401 112.464,37.245 L 112.464,37.245 C 113.688,35.085 114.696,34.041 115.092,34.401 C 115.452,34.689 114.624,38.361 115.092,39.009 C 115.524,39.477 117.144,37.533 117.72,37.893 C 118.116,38.181 117.612,40.449 118.152,40.953 C 118.729,41.385 119.701,41.241 121.212,40.521 L 121.212,40.521 z " style="fill:#fde005;fill-rule:evenodd;stroke:#000000;stroke-width:0.036;stroke-miterlimit:10" id="path49"/>
	<path d="M 123.192,42.717 C 123.948,41.241 125.064,39.873 126.684,38.325 C 128.196,36.777 130.212,35.229 132.588,33.537 L 132.588,33.537 C 131.796,29.973 131.112,27.417 130.392,25.869 C 129.672,24.249 129.204,23.997 128.412,24.141 C 127.44,24.285 126.288,26.589 125.352,26.769 C 124.38,26.733 123.912,24.501 122.976,24.789 C 121.968,25.113 120.924,26.373 119.7,28.713 L 119.7,28.713 C 121.284,30.513 122.256,32.313 122.76,33.969 C 123.156,35.625 122.76,37.281 122.544,38.793 C 122.256,40.233 121.032,41.997 121.212,42.717 C 121.32,43.329 121.933,43.329 123.192,42.717 L 123.192,42.717 z " style="fill:#fde005;fill-rule:evenodd;stroke:#000000;stroke-width:0.036;stroke-miterlimit:10" id="path51"/>
	<path d="M 130.393,37.029 C 131.293,35.769 132.877,35.913 134.317,34.401 C 135.685,32.817 136.657,29.685 138.493,28.065 C 140.149,26.373 141.913,25.329 144.613,24.789 C 147.277,24.177 152.174,24.501 154.441,24.789 C 156.529,25.113 157.177,25.581 157.502,26.337 C 157.789,26.841 157.394,27.669 156.17,28.281 C 154.766,28.785 150.842,28.749 149.401,29.829 C 147.962,30.945 147.493,32.709 147.457,34.833 C 147.241,36.885 149.401,40.125 148.537,42.069 C 147.493,43.761 144.505,44.625 142.202,45.777 C 139.862,46.893 137.162,48.117 135.218,49.053 C 133.238,49.917 131.33,51.249 130.61,51.249 C 129.782,51.177 131.15,49.305 130.826,48.837 C 130.43,48.369 128.558,48.477 128.414,48.189 C 128.198,47.793 128.918,47.181 129.746,46.209 C 130.502,45.129 132.842,42.753 133.022,41.853 C 133.058,40.917 131.078,40.773 130.394,40.737 C 129.602,40.593 128.918,41.961 128.882,41.385 C 128.809,40.629 129.493,38.253 130.393,37.029 L 130.393,37.029 z " style="fill:#fde005;fill-rule:evenodd;stroke:#000000;stroke-width:0.036;stroke-miterlimit:10" id="path53"/>
	<path d="M 131.94,51.681 C 134.244,50.421 136.836,49.233 139.572,47.973 C 142.308,46.569 146.52,45.525 148.32,44.013 C 149.976,42.501 150.48,40.881 149.833,39.009 L 149.833,39.009 C 151.921,37.317 154.08,35.949 156.169,34.617 C 158.257,33.213 161.316,31.125 162.288,31.125 C 162.973,31.125 161.82,33.213 161.209,34.617 C 160.669,35.949 159.732,37.209 158.797,38.793 L 158.797,38.793 C 157.068,39.585 155.448,40.557 153.793,41.853 C 152.173,43.149 150.517,44.625 148.969,46.425 L 148.969,46.425 C 145.729,48.081 142.813,49.485 139.789,50.781 C 136.801,52.077 133.885,53.085 131.041,54.093 L 131.041,54.093 C 130.861,54.453 130.861,54.453 131.041,54.093 C 131.221,53.661 131.473,52.905 131.94,51.681 L 131.94,51.681 z " style="fill:#fde005;fill-rule:evenodd;stroke:#000000;stroke-width:0.036;stroke-miterlimit:10" id="path55"/>
	<path d="M 133.453,58.665 C 136.261,58.089 139.033,56.973 141.769,55.173 C 144.541,53.337 147.781,49.917 149.833,47.973 C 151.776,45.921 151.597,44.661 153.324,43.365 C 154.98,41.925 157.213,40.881 159.444,40.089 C 161.568,39.225 164.089,38.613 166.032,38.541 C 167.976,38.325 170.244,38.757 170.604,39.441 C 170.82,40.089 169.56,41.385 167.112,42.933 L 167.112,42.933 C 169.344,42.969 171.072,43.185 172.585,43.581 C 173.988,43.905 176.005,44.049 175.86,45.129 C 175.608,46.101 173.448,48.801 171.468,49.917 C 169.488,51.033 166.823,50.925 163.619,51.681 C 160.164,52.329 154.691,52.869 151.38,53.841 C 148.031,54.741 146.124,55.857 143.712,56.901 C 141.12,57.909 138.204,59.061 136.512,59.529 C 134.785,59.817 133.813,59.529 133.453,58.665 L 133.453,58.665 z " style="fill:#fde005;fill-rule:evenodd;stroke:#000000;stroke-width:0.036;stroke-miterlimit:10" id="path57"/>
	<path d="M 133.668,62.805 C 135.18,61.905 137.484,60.609 140.868,59.313 C 144.18,57.873 149.256,55.497 153.576,54.525 C 157.896,53.481 162.072,53.409 166.249,53.193 C 170.353,52.833 176.293,52.581 177.805,52.977 C 179.101,53.409 177.985,54.237 174.313,55.605 L 174.313,55.605 C 176.042,57.153 177.265,58.557 178.273,59.961 C 179.137,61.401 180.685,62.697 180.002,63.705 C 179.245,64.353 177.878,64.713 174.098,64.785 C 170.174,64.821 162.434,63.957 156.854,64.137 C 151.058,64.281 144.83,65.037 140.654,65.433 C 136.478,65.649 133.166,66.117 132.374,65.865 C 131.546,65.433 135.362,64.245 135.65,63.705 C 135.829,63.237 135.217,62.805 133.668,62.805 L 133.668,62.805 z " style="fill:#fde005;fill-rule:evenodd;stroke:#000000;stroke-width:0.036;stroke-miterlimit:10" id="path59"/>
	<path d="M 138.061,67.413 C 143.245,66.729 148.141,66.657 152.893,67.197 C 157.609,67.665 163.225,68.889 166.249,70.473 C 169.093,72.021 169.885,74.901 170.173,76.593 C 170.461,78.285 169.273,80.121 167.977,80.301 C 166.465,80.301 164.197,77.889 161.857,76.809 C 159.553,75.693 156.889,74.397 154.009,73.317 L 154.009,73.317 C 155.845,75.081 156.961,77.241 157.501,79.653 C 157.933,82.065 157.465,85.773 157.068,87.717 C 156.528,89.625 156.169,91.245 154.872,90.777 C 153.505,90.129 151.704,86.205 149.184,84.009 C 146.592,81.705 139.68,77.349 139.572,77.457 C 139.32,77.565 145.872,82.209 148.104,84.441 C 150.3,86.601 151.956,88.689 152.676,90.129 C 153.216,91.425 153.252,93.081 151.812,92.325 C 150.336,91.353 147.888,87.969 143.928,85.089 C 139.86,82.209 134.604,78.933 127.764,75.261 L 127.764,75.261 C 133.056,75.909 135.756,76.053 136.296,75.693 C 136.62,75.261 130.392,73.353 130.392,72.885 C 130.356,72.273 135.936,72.993 136.296,72.417 C 136.476,71.697 132.156,70.005 132.372,69.141 C 132.625,68.277 134.568,67.701 138.061,67.413 L 138.061,67.413 z " style="fill:#fde005;fill-rule:evenodd;stroke:#000000;stroke-width:0.036;stroke-miterlimit:10" id="path61"/>
	<path d="M 151.597,65.865 C 155.521,65.181 159.157,64.893 162.505,65.001 C 165.744,65.109 169.057,65.613 171.469,66.513 C 173.917,67.341 175.645,68.745 176.941,70.041 C 178.201,71.265 179.569,72.453 178.705,73.749 C 177.697,74.901 175.142,76.269 171.037,77.457 L 171.037,77.457 C 171.182,74.217 170.533,71.949 169.094,70.257 C 167.51,68.601 165.241,68.277 162.289,67.629 C 159.337,66.873 155.772,66.333 151.597,65.865 L 151.597,65.865 z " style="fill:#fde005;fill-rule:evenodd;stroke:#000000;stroke-width:0.036;stroke-miterlimit:10" id="path63"/>
	<path d="M 126.037,78.321 C 128.809,78.717 131.077,79.437 133.237,80.085 C 135.289,80.589 136.765,81.345 138.493,82.497 C 140.221,83.649 142.273,85.917 143.281,87.501 C 144.109,88.977 144.253,90.417 143.713,91.677 L 143.713,91.677 C 142.201,90.129 140.617,88.833 139.357,87.933 C 138.061,86.925 136.693,86.277 135.649,85.989 L 135.649,85.989 C 136.585,86.997 137.233,88.401 137.593,90.345 C 137.881,92.289 137.881,94.485 137.593,97.329 L 137.593,97.329 C 133.273,94.809 129.925,92.145 127.117,89.481 C 124.345,86.673 122.257,84.081 120.997,81.165 L 120.997,81.165 C 123.913,83.253 125.857,84.009 126.685,83.577 C 127.513,83.109 127.296,81.309 126.037,78.321 L 126.037,78.321 z " style="fill:#fde005;fill-rule:evenodd;stroke:#000000;stroke-width:0.036;stroke-miterlimit:10" id="path65"/>
	<path d="M 126.685,90.777 C 127.837,92.037 128.737,93.981 129.529,96.897 C 130.141,99.813 130.717,105.033 131.257,107.841 C 131.761,110.433 132.301,112.485 133.021,112.629 C 133.705,112.593 134.605,110.325 135.433,108.057 C 136.189,105.717 136.909,102.657 137.593,98.877 L 137.593,98.877 C 134.965,98.157 132.877,97.185 131.041,95.817 C 129.205,94.377 127.801,92.829 126.685,90.777 L 126.685,90.777 z " style="fill:#fde005;fill-rule:evenodd;stroke:#000000;stroke-width:0.036;stroke-miterlimit:10" id="path67"/>
	<path d="M 120.564,84.009 C 121.896,85.341 123.084,87.069 124.272,89.049 C 125.388,90.957 126.756,93.117 127.548,95.817 C 128.34,98.481 128.988,103.629 128.664,104.997 C 128.088,106.257 125.892,104.637 124.704,103.449 C 123.444,102.081 122.4,100.173 121.428,97.329 L 121.428,97.329 C 120.888,93.153 120.312,90.165 119.7,87.933 C 118.908,85.665 117.396,84.477 117.504,84.225 C 117.576,84.009 120.024,86.313 120.564,86.421 C 121.033,86.349 121.033,85.593 120.564,84.009 L 120.564,84.009 z " style="fill:#fde005;fill-rule:evenodd;stroke:#000000;stroke-width:0.036;stroke-miterlimit:10" id="path69"/>
	<path d="M 111.601,87.069 C 112.609,88.689 113.365,90.777 114.013,93.621 C 114.517,96.357 114.805,101.793 115.309,103.665 C 115.705,105.321 115.993,104.781 116.857,104.133 C 117.757,103.521 118.945,102.081 120.565,99.957 L 120.565,99.957 C 120.385,96.861 119.953,94.053 119.269,91.677 C 118.513,89.193 116.965,85.809 116.425,85.557 C 115.849,85.269 116.173,90.165 115.741,90.129 C 115.129,89.913 114.013,85.377 113.365,84.873 C 112.717,84.297 111.997,85.125 111.601,87.069 L 111.601,87.069 z " style="fill:#fde005;fill-rule:evenodd;stroke:#000000;stroke-width:0.036;stroke-miterlimit:10" id="path71"/>
	<path d="M 81.217,63.921 C 77.904,64.065 74.629,64.281 71.389,64.569 C 67.969,64.785 64.693,65.397 61.561,65.433 C 58.393,65.253 53.857,64.101 52.813,64.353 C 51.697,64.677 54.577,66.081 55.225,67.197 C 55.837,68.205 56.521,69.177 56.305,70.257 C 55.909,71.265 53.245,72.561 53.029,73.317 C 52.669,73.929 54.253,74.217 54.577,74.613 C 54.721,74.937 53.425,75.153 54.577,75.693 C 55.693,76.233 58.573,77.169 61.561,77.673 C 64.441,78.069 67.933,78.285 72.037,78.321 L 72.037,78.321 C 75.061,75.441 77.617,73.317 79.705,71.553 C 81.721,69.789 84.709,68.673 84.493,68.061 C 84.133,67.485 78.481,68.385 77.941,67.845 C 77.4,67.125 78.444,65.865 81.217,63.921 L 81.217,63.921 z " style="fill:#fde005;fill-rule:evenodd;stroke:#000000;stroke-width:0.036;stroke-miterlimit:10" id="path73"/>
	<path d="M 93.024,80.517 C 91.152,82.281 89.676,84.405 88.452,87.285 C 87.156,90.056 85.608,94.556 85.608,97.329 C 85.572,100.101 86.94,102.369 88.2,103.449 C 89.316,104.277 91.404,103.593 92.376,102.801 C 93.204,101.829 93.06,100.245 93.456,98.445 C 93.744,96.717 94.248,94.629 94.572,92.325 L 94.572,92.325 C 96.48,95.493 97.812,97.113 98.712,97.329 C 99.54,97.473 99.072,94.089 99.792,93.405 C 100.404,92.685 101.772,93.513 102.636,92.973 C 103.356,92.217 104.832,91.353 104.832,89.265 C 104.796,87.069 103.716,81.093 102.852,80.517 C 101.844,79.941 99.9,85.629 99.36,85.773 C 98.856,85.773 100.224,81.021 99.576,80.949 C 98.748,80.805 95.364,85.197 94.572,85.089 C 93.672,84.801 94.824,80.913 94.572,80.085 C 94.249,79.293 93.781,79.437 93.024,80.517 L 93.024,80.517 z " style="fill:#fde005;fill-rule:evenodd;stroke:#000000;stroke-width:0.036;stroke-miterlimit:10" id="path75"/>
	<path d="M 84.708,92.541 C 81,95.853 78.264,98.949 76.212,102.369 C 74.124,105.681 71.712,111.477 72.468,112.413 C 73.26,113.205 75.78,111.585 80.568,107.409 L 80.568,107.409 C 79.668,111.981 79.452,114.825 79.92,116.373 C 80.388,117.741 81.612,117.057 83.196,116.121 C 84.636,115.113 87.3,112.773 88.668,110.901 C 89.964,108.957 90.756,107.013 91.044,104.781 L 91.044,104.781 C 88.884,105.105 87.336,104.781 86.256,103.665 C 85.176,102.477 84.636,100.065 84.492,98.229 C 84.205,96.321 84.276,94.521 84.708,92.541 L 84.708,92.541 z " style="fill:#fde005;fill-rule:evenodd;stroke:#000000;stroke-width:0.036;stroke-miterlimit:10" id="path77"/>
	<path d="M 82.333,70.473 C 80.641,72.202 78.697,73.893 76.645,75.693 C 74.593,77.493 70.669,79.689 69.877,81.165 C 68.941,82.497 69.445,83.325 71.389,83.793 L 71.389,83.793 L 78.157,77.673 L 78.157,77.673 C 78.805,76.305 79.417,74.865 80.137,73.749 C 80.856,72.597 81.541,71.373 82.333,70.473 L 82.333,70.473 z " style="fill:#fde005;fill-rule:evenodd;stroke:#000000;stroke-width:0.036;stroke-miterlimit:10" id="path79"/>
	<path d="M 85.608,74.613 C 82.44,76.017 79.668,77.817 77.292,79.869 C 74.736,81.813 73.8,83.541 71.172,86.853 C 68.436,90.165 63.864,96.681 61.776,99.741 C 59.652,102.657 58.86,103.881 58.716,104.781 C 58.356,105.609 60.048,103.989 60.48,104.781 C 60.876,105.501 60.408,109.173 61.56,109.137 C 62.604,108.957 64.476,107.265 67.032,103.917 L 67.032,103.917 C 66.132,106.257 66.132,107.661 67.032,108.273 C 67.896,108.813 69.588,108.453 72.252,107.193 L 72.252,107.193 C 73.548,103.341 75.204,100.029 77.508,97.113 C 79.704,94.161 82.404,91.857 85.608,89.913 L 85.608,89.913 C 85.932,88.329 86.508,86.673 87.336,85.089 C 88.128,83.361 90.54,80.589 90.396,80.085 C 90.108,79.653 86.436,82.209 86.04,82.065 C 85.5,81.777 87.948,78.861 87.552,78.321 C 87.012,77.601 83.736,78.897 83.412,78.321 C 83.088,77.673 83.772,76.485 85.608,74.613 L 85.608,74.613 z " style="fill:#fde005;fill-rule:evenodd;stroke:#000000;stroke-width:0.036;stroke-miterlimit:10" id="path81"/>
	<path d="M 85.608,49.053 C 83.052,46.065 82.008,44.337 82.332,44.013 C 82.692,43.581 86.832,47.253 87.552,46.857 C 88.02,46.317 85.5,41.853 85.824,41.385 C 86.112,40.953 87.228,41.853 89.316,44.229 L 89.316,44.229 C 88.308,39.693 88.092,37.533 88.668,37.461 C 89.208,37.461 90.468,39.549 92.592,44.013 L 92.592,44.013 C 92.34,42.069 92.268,40.665 92.376,39.657 C 92.34,38.577 92.88,38.937 93.024,38.109 C 93.096,37.209 92.628,34.869 93.024,34.833 C 93.24,34.761 94.5,37.029 95.004,37.893 C 95.508,38.757 95.94,39.369 96.3,39.873 L 96.3,39.873 C 97.848,38.937 99.036,38.541 100.008,38.541 C 100.908,38.541 101.196,39.909 101.988,39.873 C 102.744,39.729 103.896,38.469 104.616,37.893 C 105.264,37.173 105.768,35.949 106.128,36.165 C 106.416,36.381 105.84,38.577 106.776,39.009 C 107.712,39.261 109.224,38.937 111.6,37.893 L 111.6,37.893 C 111.384,39.549 111.456,40.449 111.816,40.305 C 112.212,40.233 113.076,36.993 113.58,37.245 C 113.832,37.281 113.256,40.557 113.796,40.953 C 114.3,41.277 115.2,40.701 116.64,39.225 L 116.64,39.225 C 116.46,40.701 116.676,41.601 117.288,42.069 C 117.9,42.465 118.872,42.393 120.348,41.853 L 120.348,41.853 C 120.384,42.969 120.6,43.689 120.996,44.013 C 121.392,44.265 121.932,44.121 122.76,43.581 L 122.76,43.581 C 122.616,44.553 122.832,45.417 123.408,45.777 C 123.876,46.029 125.352,45.453 126.036,45.993 C 126.612,46.605 126.72,48.405 127.332,49.053 C 127.944,49.521 128.7,49.521 129.744,49.053 L 129.744,49.053 C 129.312,50.637 129.168,51.609 129.312,52.113 C 129.456,52.545 129.888,52.473 130.608,51.897 L 130.608,51.897 C 130.284,53.229 130.14,54.201 130.176,54.957 C 130.14,55.533 130.86,55.785 130.824,56.253 C 130.644,56.721 129.492,57.405 129.744,58.017 C 130.032,58.629 131.112,59.205 132.156,59.745 C 133.02,60.177 133.92,60.357 135,60.429 L 135,60.429 C 132.696,61.509 131.4,62.301 131.256,62.805 C 131.076,63.237 131.904,63.381 133.884,63.237 L 133.884,63.237 L 130.176,65.217 L 130.176,65.217 C 129.924,65.973 130.068,66.441 130.608,66.765 C 131.148,67.017 131.976,67.017 133.236,66.765 L 133.236,66.765 C 131.436,67.269 130.68,67.917 130.824,68.709 C 130.968,69.393 132.012,70.401 134.1,71.337 L 134.1,71.337 C 131.724,70.941 130.104,70.797 129.096,70.905 C 128.124,71.013 128.376,72.093 128.196,71.769 C 127.872,71.265 127.584,70.077 127.332,68.061 L 127.332,68.061 C 125.496,69.141 124.524,69.429 124.272,68.925 C 124.02,68.349 124.488,67.017 125.82,64.785 L 125.82,64.785 C 123.984,64.893 123.084,64.533 122.976,63.705 C 122.868,62.805 123.588,61.581 125.136,59.745 L 125.136,59.745 C 122.832,61.545 121.5,62.229 120.996,61.941 C 120.456,61.581 120.816,60.249 122.076,57.801 L 122.076,57.801 C 119.088,59.673 117.252,60.321 116.424,59.745 C 115.596,59.097 115.812,57.333 117.072,54.309 L 117.072,54.309 C 114.624,56.649 113.256,57.909 112.68,57.801 C 112.068,57.585 114.012,54.273 113.796,53.841 C 113.436,53.337 111.816,55.857 111.168,55.173 C 110.556,54.381 110.124,49.701 109.872,49.485 C 109.44,49.233 109.116,50.565 108.756,53.625 L 108.756,53.625 C 107.712,50.385 106.884,48.981 106.128,49.269 C 105.3,49.557 105.048,54.741 104.4,55.389 C 103.68,55.965 102.924,52.545 101.988,52.761 C 100.872,52.905 99.108,56.685 98.496,56.469 C 97.956,56.181 98.028,54.489 98.712,51.249 L 98.712,51.249 C 96.408,53.985 95.076,55.317 94.572,54.957 C 94.032,54.561 94.392,52.761 95.652,49.269 L 95.652,49.269 C 93.78,52.797 92.52,54.885 91.728,55.389 C 90.864,55.749 91.584,52.689 90.828,52.329 C 89.928,51.969 86.976,54.201 86.688,53.625 C 86.4,52.977 87.156,51.429 89.1,48.837 L 89.1,48.837 C 87.336,50.205 86.22,51.033 85.608,51.033 C 84.997,51.105 84.997,50.349 85.608,49.053 L 85.608,49.053 z " style="fill:#a61e22;fill-rule:evenodd;stroke:#000000;stroke-width:0.036;stroke-miterlimit:10" id="path83"/>
	<path d="M 82.98,50.349 C 83.664,50.817 84.096,51.429 84.276,52.329 C 84.456,53.157 84.528,54.957 84.06,55.389 C 83.448,55.713 82.476,55.425 81,54.525 L 81,54.525 C 82.008,56.001 82.332,57.117 82.116,58.017 C 81.828,58.845 81,59.421 79.488,59.745 L 79.488,59.745 C 81.216,59.853 82.116,60.285 82.332,60.645 C 82.476,61.005 81.936,61.509 80.568,62.157 L 80.568,62.157 C 82.512,61.797 83.412,61.941 83.412,62.589 C 83.232,63.201 79.848,65.433 80.352,66.081 C 80.892,66.657 83.124,66.657 86.904,66.081 L 86.904,66.081 C 85.5,67.809 84.384,69.537 83.412,71.121 C 82.368,72.741 81.612,74.217 81,75.693 L 81,75.693 C 84.456,73.281 86.616,72.237 87.336,72.417 C 88.02,72.561 85.104,76.017 85.392,76.809 C 85.608,77.349 88.344,76.161 88.884,76.593 C 89.352,77.061 89.208,78.033 88.452,79.653 L 88.452,79.653 C 90.216,78.033 91.26,77.277 91.728,77.241 C 92.124,77.205 91.944,77.889 91.044,79.437 L 91.044,79.437 C 93.42,77.673 94.86,76.917 95.652,77.457 C 96.372,77.961 94.5,82.209 95.436,82.281 C 96.3,82.245 97.956,80.517 100.692,77.241 L 100.692,77.241 L 100.224,80.949 L 103.5,78.537 L 103.5,78.537 C 104.04,79.653 104.688,81.237 105.048,83.577 C 105.408,85.809 105.696,88.653 105.912,92.109 L 105.912,92.109 C 106.272,90.381 106.488,88.797 106.56,87.501 C 106.632,86.097 106.56,84.981 106.344,84.009 L 106.344,84.009 C 107.136,85.089 107.928,86.205 108.324,87.501 C 108.72,88.689 108.936,90.057 108.972,91.461 L 108.972,91.461 C 109.08,88.797 109.152,86.709 109.188,85.341 C 109.224,83.865 109.224,83.109 109.188,82.929 L 109.188,82.929 L 110.952,85.557 L 110.952,85.557 C 111.636,83.505 112.284,82.534 112.896,82.497 C 113.508,82.461 114.048,83.361 114.66,85.341 L 114.66,85.341 C 114.336,83.577 114.624,82.677 115.524,82.497 C 116.424,82.317 117.792,82.965 119.916,84.441 L 119.916,84.441 L 119.016,79.005 L 119.016,79.005 C 122.256,81.057 124.416,81.993 125.352,81.813 C 126.288,81.525 123.804,78.645 124.704,77.889 C 125.532,77.133 127.26,76.989 130.176,77.457 L 130.176,77.457 L 125.136,75.045 L 130.176,74.397 L 129.312,72.633 L 129.312,72.633 C 127.944,72.669 127.116,72.453 126.684,71.985 C 126.252,71.517 126.324,70.797 126.9,69.825 L 126.9,69.825 C 125.028,70.581 123.912,70.653 123.408,70.041 C 122.904,69.357 123.12,68.133 124.056,66.081 L 124.056,66.081 C 122.436,65.433 121.536,64.857 121.212,64.353 C 120.888,63.777 121.176,63.381 122.076,63.021 L 122.076,63.021 C 120.384,62.769 119.412,62.481 119.016,62.157 C 118.62,61.761 118.8,61.329 119.7,60.861 L 119.7,60.861 C 117.468,61.257 116.1,61.185 115.308,60.645 C 114.516,60.033 114.444,59.061 115.092,57.585 L 115.092,57.585 C 113.4,58.701 112.356,59.133 111.816,58.881 C 111.204,58.449 111.996,56.577 111.816,56.037 C 111.564,55.533 110.808,56.325 110.52,56.037 C 110.16,55.533 109.908,53.661 109.62,53.625 C 109.224,53.517 108.792,56.145 108.324,55.821 C 107.784,55.389 107.172,51.393 106.776,51.465 C 106.272,51.537 106.416,55.677 105.696,56.253 C 104.904,56.721 103.86,56.145 102.42,54.525 L 102.42,54.525 C 100.116,56.865 98.64,58.053 97.848,58.233 C 97.056,58.341 96.984,57.441 97.632,55.389 L 97.632,55.389 C 95.292,56.217 93.924,56.577 93.24,56.469 C 92.556,56.361 92.7,55.785 93.672,54.741 L 93.672,54.741 C 92.34,56.361 91.44,57.081 90.828,56.901 C 90.144,56.541 90.756,54.057 90.18,53.625 C 89.532,53.265 87.732,54.885 87.12,54.741 C 86.4,54.453 86.04,53.625 86.04,52.113 L 86.04,52.113 C 85.176,51.501 84.636,50.709 84.276,50.133 C 83.916,49.449 83.844,48.801 84.06,48.189 L 84.06,48.189 C 83.701,48.909 83.34,49.629 82.98,50.349 L 82.98,50.349 z " style="fill:#8d2828;fill-rule:evenodd;stroke:#000000;stroke-width:0.036;stroke-miterlimit:10" id="path85"/>
	<path d="M 226.62,196.797 C 217.009,213.285 208.908,228.693 201.78,243.849 C 194.652,258.861 190.116,272.541 184.14,286.977 C 178.092,301.449 173.16,314.085 165.852,330.177 C 158.364,346.269 147.816,364.341 140.04,382.449 C 132.228,400.377 125.496,418.232 119.448,436.989 L 119.448,436.989 C 113.004,455.888 106.128,475.833 98.532,497.936 C 90.792,520.077 79.02,552.945 74.052,568.497 C 69.156,583.761 67.68,590.637 69.48,589.413 L 69.48,589.413 L 73.728,587.433 L 73.728,587.433 C 77.832,570.91 83.232,552.333 90.36,530.589 C 97.38,508.773 109.26,476.445 115.848,458.049 C 122.292,439.689 123.66,435.261 129.24,421.149 C 134.784,406.822 141.372,390.082 148.86,373.702 C 156.204,357.286 166.501,338.818 173.34,323.733 C 180.108,308.578 185.4,295.402 189.36,283.522 L 189.36,283.522 C 191.484,277.474 194.508,269.806 198.828,260.122 C 203.112,250.222 209.881,235.822 214.849,225.814 C 219.709,215.77 225.865,205.87 227.917,200.974 C 229.824,196.041 229.393,194.781 226.62,196.797 L 226.62,196.797 z " style="fill-rule:evenodd;stroke:#000000;stroke-width:0.036;stroke-miterlimit:10" id="path87"/>
	<path d="M 223.992,203.241 C 216.972,215.949 211.284,226.893 206.352,236.901 C 201.42,246.729 198.756,252.957 194.904,262.389 C 191.016,271.893 187.56,281.937 183.169,293.097 C 178.669,304.149 172.404,318.442 168.12,328.053 C 163.692,337.486 161.1,341.589 157.032,349.942 C 152.856,358.257 148.572,366.177 143.64,377.733 C 138.492,389.217 133.092,402.969 127.296,418.557 C 121.464,434.11 115.668,450.994 109.332,470.181 L 109.332,470.181 C 111.348,465.249 114.048,458.229 117.828,448.293 C 121.464,438.321 126.504,424.064 131.544,411.356 C 136.656,398.541 142.524,383.96 147.888,372.476 C 153.035,360.92 157.932,352.352 162.576,342.741 C 167.112,332.985 171.972,323.228 175.644,314.985 C 179.208,306.741 181.404,301.304 184.464,293.421 C 187.487,285.321 190.692,275.169 193.932,267.285 C 197.028,259.329 198.612,256.197 203.4,246.369 C 208.188,236.325 219.204,215.877 222.696,208.497 C 226.116,201.225 226.549,199.569 223.992,203.241 L 223.992,203.241 z " style="fill:#585524;fill-rule:evenodd;stroke:#000000;stroke-width:0.036;stroke-miterlimit:10" id="path89"/>
	<path d="M 69.805,587.757 C 72.397,577.605 75.241,567.705 78.625,557.373 C 81.973,546.969 85.897,536.997 89.713,526.341 C 93.457,515.649 97.309,503.625 100.837,494.013 C 104.257,484.293 107.173,476.085 109.981,468.849 L 109.981,468.849 C 108.865,472.557 106.957,478.497 104.113,486.813 C 101.125,495.202 97.093,505.857 92.989,518.494 C 88.813,531.13 82.909,550.138 79.597,561.622 C 76.213,572.89 74.125,580.81 73.045,585.813 L 73.045,585.813 C 71.964,586.461 70.885,587.109 69.805,587.757 L 69.805,587.757 z " style="fill:#585524;fill-rule:evenodd;stroke:#000000;stroke-width:0.036;stroke-miterlimit:10" id="path91"/>
	<path d="M 114.696,472.413 C 114.984,470.361 107.964,470.613 106.092,468.345 C 104.292,466.077 103.464,462.621 103.788,458.841 C 104.112,455.026 107.46,450.669 107.964,445.809 C 108.396,440.913 106.92,434.83 106.56,429.897 C 106.2,425.001 105.984,420.61 105.876,416.542 C 98.784,428.386 94.104,437.458 91.584,444.262 C 89.1,451.031 89.388,453.155 91.044,456.97 C 92.772,460.75 99.252,463.63 101.628,466.907 C 103.968,470.182 101.7,475.115 104.976,476.482 C 108.252,477.849 114.409,474.429 114.696,472.413 L 114.696,472.413 z " style="fill-rule:evenodd;stroke:#000000;stroke-width:0.036;stroke-miterlimit:10" id="path93"/>
	<path d="M 101.917,463.089 C 101.053,462.117 100.945,460.353 101.449,457.797 C 101.989,455.097 104.221,450.597 105.085,447.609 C 105.697,444.657 105.769,444.621 105.733,440.3 C 105.625,435.8 105.373,429.572 104.833,421.22 L 104.833,421.22 C 101.845,427.268 99.217,432.452 97.093,437.312 C 94.861,442.1 92.521,446.348 91.729,449.661 C 90.865,452.829 91.081,454.016 92.233,456.285 C 93.421,458.48 95.545,460.497 98.749,462.621 L 98.749,462.621 C 97.201,457.725 96.769,452.577 97.453,447.033 C 98.101,441.417 99.793,435.549 102.673,429.285 L 102.673,429.285 C 101.125,435.476 99.973,440.877 99.361,445.485 C 98.677,450.056 98.317,453.837 98.821,456.825 C 99.181,459.741 100.261,461.829 101.917,463.089 L 101.917,463.089 z " style="fill:#315d2d;fill-rule:evenodd;stroke:#000000;stroke-width:0.036;stroke-miterlimit:10" id="path95"/>
	<path d="M 102.061,464.745 C 102.025,467.589 104.545,471.728 105.049,473.06 C 105.553,474.392 104.833,476.048 106.165,475.796 C 107.461,475.544 113.185,473.996 113.113,472.844 C 113.041,471.693 108.757,471.188 107.353,470.396 C 105.949,469.604 102.385,466.185 102.061,464.745 L 102.061,464.745 z " style="fill:#315d2d;fill-rule:evenodd;stroke:#000000;stroke-width:0.036;stroke-miterlimit:10" id="path97"/>
	<path d="M 51.121,496.425 C 51.553,507.585 52.345,516.909 53.785,524.937 C 55.009,532.857 55.549,537.141 59.293,544.017 C 63.145,550.857 68.725,557.913 76.573,565.618 L 76.573,565.618 C 77.185,561.189 76.681,556.006 75.061,549.526 C 73.369,543.082 70.597,535.954 66.601,527.17 C 62.568,518.241 57.457,508.125 51.121,496.425 L 51.121,496.425 z " style="fill-rule:evenodd;stroke:#000000;stroke-width:0.036;stroke-miterlimit:10" id="path99"/>
	<path d="M 52.272,500.529 C 56.052,508.233 59.472,515.18 62.532,521.804 C 65.628,528.356 68.544,534.62 70.596,539.768 C 72.432,544.808 73.548,548.48 74.34,552.153 C 75.204,555.789 75.6,558.848 75.672,561.476 L 75.672,561.476 C 70.2,551 65.844,541.821 62.604,533.792 C 59.256,525.692 57.708,518.996 56.016,513.416 C 54.217,507.801 53.064,503.553 52.272,500.529 L 52.272,500.529 z " style="fill:#315d2d;fill-rule:evenodd;stroke:#000000;stroke-width:0.036;stroke-miterlimit:10" id="path101"/>
	<path d="M 52.38,503.661 C 52.488,511.221 53.208,518.169 54.54,524.901 C 55.8,531.596 56.844,536.997 60.3,543.476 C 63.684,549.848 68.508,556.113 74.916,562.808 L 74.916,562.808 C 70.704,555.104 67.248,548.157 64.404,541.533 C 61.56,534.837 59.76,529.581 57.888,523.245 C 55.873,516.801 54.037,510.501 52.38,503.661 L 52.38,503.661 z " style="fill:#315d2d;fill-rule:evenodd;stroke:#000000;stroke-width:0.036;stroke-miterlimit:10" id="path103"/>
	<path d="M 134.497,488.685 C 129.709,497.253 125.245,504.238 120.961,510.034 C 116.677,515.649 114.625,518.998 108.973,522.849 C 103.141,526.702 95.905,529.906 86.725,532.893 L 86.725,532.893 C 87.913,529.185 90.505,525.225 94.357,520.87 C 98.137,516.442 103.249,511.977 109.981,506.649 C 116.712,501.249 124.741,495.309 134.497,488.685 L 134.497,488.685 z " style="fill-rule:evenodd;stroke:#000000;stroke-width:0.036;stroke-miterlimit:10" id="path105"/>
	<path d="M 131.904,491.457 C 125.82,496.029 120.384,500.061 115.308,504.093 C 110.232,508.017 105.3,511.689 101.772,514.965 C 98.1,518.133 95.976,520.653 93.852,523.209 C 91.692,525.765 90.108,527.889 89.1,530.013 L 89.1,530.013 C 97.596,523.822 104.616,518.53 110.448,513.453 C 116.208,508.377 120.132,503.733 123.768,500.097 C 127.261,496.316 130.104,493.617 131.904,491.457 L 131.904,491.457 z " style="fill:#315d2d;fill-rule:evenodd;stroke:#000000;stroke-width:0.036;stroke-miterlimit:10" id="path107"/>
	<path d="M 130.573,493.869 C 127.369,499.772 124.057,504.957 120.349,509.709 C 116.605,514.425 113.545,518.241 108.397,521.985 C 103.141,525.621 96.769,528.644 89.137,531.344 L 89.137,531.344 C 95.473,526.916 100.981,522.92 105.949,518.816 C 110.773,514.785 114.229,511.148 118.405,507.081 C 122.544,502.869 126.504,498.513 130.573,493.869 L 130.573,493.869 z " style="fill:#315d2d;fill-rule:evenodd;stroke:#000000;stroke-width:0.036;stroke-miterlimit:10" id="path109"/>
	<path d="M 116.641,508.917 C 113.581,519.645 110.521,528.537 107.317,536.025 C 104.077,543.441 102.745,547.436 97.489,553.268 C 92.125,558.993 84.925,564.537 75.601,570.188 L 75.601,570.188 C 75.925,565.724 77.725,560.865 80.857,554.924 C 83.989,549.128 88.309,542.684 94.357,535.16 C 100.404,527.457 107.641,518.709 116.641,508.917 L 116.641,508.917 z " style="fill-rule:evenodd;stroke:#000000;stroke-width:0.036;stroke-miterlimit:10" id="path111"/>
	<path d="M 114.517,512.625 C 109.045,519.177 104.113,525.225 99.577,530.913 C 95.041,536.564 90.505,541.892 87.481,546.465 C 84.313,550.821 82.549,554.313 80.929,557.625 C 79.201,561.009 78.049,563.745 77.473,566.373 L 77.473,566.373 C 85.249,557.373 91.549,549.56 96.661,542.505 C 101.773,535.341 104.761,529.365 107.857,524.289 C 110.88,519.285 112.969,515.396 114.517,512.625 L 114.517,512.625 z " style="fill:#315d2d;fill-rule:evenodd;stroke:#000000;stroke-width:0.036;stroke-miterlimit:10" id="path113"/>
	<path d="M 113.725,515.648 C 111.745,522.993 109.405,529.617 106.561,535.808 C 103.645,541.892 101.305,547.077 96.625,552.476 C 91.765,557.913 85.609,562.808 77.869,567.848 L 77.869,567.848 C 83.773,561.369 88.705,555.428 93.097,549.632 C 97.381,543.764 100.225,539.048 103.717,533.396 C 107.208,527.673 110.413,521.805 113.725,515.648 L 113.725,515.648 z " style="fill:#315d2d;fill-rule:evenodd;stroke:#000000;stroke-width:0.036;stroke-miterlimit:10" id="path115"/>
	<path d="M 34.632,500.997 C 36.072,515.181 37.872,527.133 40.32,537.249 C 42.624,547.221 43.488,552.801 48.888,561.188 C 54.324,569.577 62.172,578.216 72.72,587.396 L 72.72,587.396 C 73.188,581.708 72.108,575.084 69.48,566.949 C 66.816,558.812 62.604,550.064 56.844,539.049 C 50.977,527.925 43.705,515.433 34.632,500.997 L 34.632,500.997 z " style="fill-rule:evenodd;stroke:#000000;stroke-width:0.036;stroke-miterlimit:10" id="path117"/>
	<path d="M 36.433,506.181 C 41.941,515.649 46.693,524.397 51.229,532.57 C 55.765,540.742 59.869,548.446 63.001,554.853 C 65.881,561.082 67.393,565.833 68.797,570.37 C 70.165,574.942 70.921,578.83 71.209,582.178 L 71.209,582.178 C 63.397,569.146 57.205,557.842 52.345,547.834 C 47.413,537.682 44.893,529.366 42.265,522.346 C 39.601,515.325 37.657,510.033 36.433,506.181 L 36.433,506.181 z " style="fill:#315d2d;fill-rule:evenodd;stroke:#000000;stroke-width:0.036;stroke-miterlimit:10" id="path119"/>
	<path d="M 36.792,510.177 C 37.584,519.897 39.096,528.61 41.328,537.141 C 43.56,545.457 45.252,552.513 50.148,560.397 C 54.972,568.21 61.668,575.95 70.38,583.906 L 70.38,583.906 C 64.404,574.473 59.4,565.798 55.224,557.59 C 51.084,549.274 48.42,542.686 45.432,534.766 C 42.265,526.701 39.528,518.781 36.792,510.177 L 36.792,510.177 z " style="fill:#315d2d;fill-rule:evenodd;stroke:#000000;stroke-width:0.036;stroke-miterlimit:10" id="path121"/>
	<path d="M 68.977,588.765 C 67.753,585.165 67.357,581.565 67.789,577.534 C 68.221,573.502 69.337,569.326 71.425,564.862 L 71.425,564.862 L 72.973,561.586 L 72.973,561.586 C 76.213,555.718 80.713,552.082 86.617,550.822 C 92.557,549.418 102.061,553.342 108.181,553.845 C 114.193,554.349 118.945,554.133 122.581,553.593 L 122.581,553.593 C 120.853,558.201 117.793,561.333 113.257,563.385 C 108.613,565.257 100.153,563.278 95.509,565.509 C 90.901,567.705 88.453,573.249 85.789,576.741 C 82.981,580.197 81.901,583.905 79.093,586.064 C 76.285,588.117 72.865,588.873 68.977,588.765 L 68.977,588.765 z " style="fill-rule:evenodd;stroke:#000000;stroke-width:0.036;stroke-miterlimit:10" id="path123"/>
	<path d="M 69.697,586.173 C 68.545,583.365 68.257,580.449 68.545,577.137 C 68.833,573.789 69.841,570.333 71.569,566.481 L 71.569,566.481 L 74.593,561.406 L 74.593,561.406 C 76.033,557.986 78.193,555.538 81.073,553.918 C 83.989,552.262 88.129,551.506 91.693,551.649 C 95.113,551.649 98.533,553.45 101.557,554.133 C 104.437,554.745 106.273,555.177 109.297,555.429 C 112.321,555.537 115.741,555.429 119.701,554.961 L 119.701,554.961 C 116.749,556.869 113.257,558.201 108.937,558.813 C 104.509,559.317 98.353,557.914 94.069,558.633 C 89.749,559.245 86.905,560.362 83.737,563.097 C 80.461,565.833 77.689,571.377 75.277,575.301 C 72.865,579.188 71.101,582.681 69.697,586.173 L 69.697,586.173 z " style="fill:#315d2d;fill-rule:evenodd;stroke:#000000;stroke-width:0.036;stroke-miterlimit:10" id="path125"/>
	<path d="M 70.309,587.289 C 72.865,582.321 75.205,577.893 77.869,573.861 C 80.353,569.72 82.405,565.688 85.573,563.277 C 88.669,560.865 93.205,560.073 96.553,559.64 C 99.829,559.136 102.421,560.361 105.445,560.252 C 108.469,560.072 112.105,559.46 114.553,558.848 C 116.929,558.092 118.585,557.336 119.665,556.184 L 119.665,556.184 C 117.901,559.281 115.633,561.441 112.861,562.664 C 109.945,563.78 105.733,562.88 102.709,563.276 C 99.505,563.599 96.769,563.599 94.501,564.679 C 92.197,565.723 90.685,567.307 89.137,569.287 C 87.517,571.159 86.581,573.139 84.781,575.911 C 82.837,578.611 80.101,583.399 77.689,585.415 C 75.205,587.325 72.792,587.901 70.309,587.289 L 70.309,587.289 z " style="fill:#315d2d;fill-rule:evenodd;stroke:#000000;stroke-width:0.036;stroke-miterlimit:10" id="path127"/>
	<path d="M 168.229,327.369 C 170.101,325.137 172.693,322.724 176.149,320.529 C 179.569,318.297 185.294,316.064 188.75,313.688 C 192.134,311.096 194.581,308.829 196.489,305.625 C 198.254,302.421 199.298,298.785 199.621,294.572 L 199.621,294.572 C 201.565,298.965 201.997,303.609 200.63,308.648 C 199.226,313.653 195.661,320.529 191.594,324.56 C 187.382,328.52 180.325,331.04 176.114,332.121 C 171.902,333.02 168.698,332.409 166.503,330.141 L 166.503,330.141 C 167.076,329.241 167.652,328.305 168.229,327.369 L 168.229,327.369 z " style="fill-rule:evenodd;stroke:#000000;stroke-width:0.036;stroke-miterlimit:10" id="path129"/>
	<path d="M 168.12,329.564 C 169.669,327.044 171.721,324.957 174.276,323.012 C 176.833,321.104 180.36,319.664 183.456,318.008 C 186.48,316.208 189.793,314.336 192.276,312.392 C 194.545,310.304 196.38,308.144 197.64,305.913 C 198.9,303.609 199.728,301.305 199.98,298.857 L 199.98,298.857 C 200.7,300.873 200.772,303.501 199.908,306.741 C 198.936,309.98 196.956,314.985 194.94,318.261 C 192.996,321.429 190.728,323.986 187.992,326.074 C 185.148,328.09 181.045,329.53 178.02,330.393 C 174.96,331.149 172.08,331.366 169.524,330.897 L 169.524,330.897 C 174.169,329.097 177.948,327.406 181.548,325.389 C 185.04,323.373 187.596,321.681 190.332,319.053 C 192.96,316.318 195.228,313.149 197.279,309.261 L 197.279,309.261 C 194.832,312.789 192.383,315.705 189.792,318.154 C 187.199,320.422 184.535,322.294 181.943,323.769 C 179.208,325.173 176.219,326.145 173.951,327.118 C 171.612,328.017 169.669,328.881 168.12,329.564 L 168.12,329.564 z " style="fill:#315d2d;fill-rule:evenodd;stroke:#000000;stroke-width:0.036;stroke-miterlimit:10" id="path131"/>
	<path d="M 162.108,340.509 C 161.928,337.486 161.136,334.245 159.732,330.358 C 158.256,326.397 154.764,321.429 153.541,317.397 C 152.137,313.293 151.633,309.91 152.028,306.273 C 152.461,302.565 153.684,299.038 155.988,295.545 L 155.988,295.545 C 151.74,297.921 148.753,301.413 146.881,306.309 C 144.901,311.169 143.857,318.801 144.865,324.49 C 145.873,330.034 150.013,336.406 152.965,339.718 C 155.773,342.922 158.797,344.218 161.893,343.75 L 161.893,343.75 C 161.965,342.669 162.036,341.589 162.108,340.509 L 162.108,340.509 z " style="fill-rule:evenodd;stroke:#000000;stroke-width:0.036;stroke-miterlimit:10" id="path133"/>
	<path d="M 160.885,342.345 C 161.029,339.429 160.704,336.513 159.769,333.453 C 158.689,330.285 156.781,327.224 155.305,323.985 C 153.828,320.781 152.173,317.216 151.452,314.264 C 150.696,311.204 150.516,308.396 150.912,305.84 C 151.165,303.212 151.921,300.908 153.181,298.784 L 153.181,298.784 C 151.309,299.864 149.833,302.132 148.609,305.192 C 147.277,308.324 146.161,313.507 145.837,317.431 C 145.513,321.211 145.765,324.452 146.881,327.835 C 147.996,331.219 150.301,334.531 152.425,337.195 C 154.477,339.607 156.565,341.407 158.977,342.594 L 158.977,342.594 C 156.241,338.454 154.081,334.746 152.497,331.074 C 150.769,327.473 149.653,324.414 149.149,320.778 C 148.573,317.034 148.609,313.038 149.257,308.79 L 149.257,308.79 C 149.076,313.074 149.437,316.89 150.049,320.382 C 150.66,323.802 151.813,326.718 153.109,329.527 C 154.369,332.262 156.205,334.783 157.645,336.943 C 158.904,339.033 159.984,340.833 160.885,342.345 L 160.885,342.345 z " style="fill:#315d2d;fill-rule:evenodd;stroke:#000000;stroke-width:0.036;stroke-miterlimit:10" id="path135"/>
	<path d="M 209.484,180.993 C 206.713,178.797 204.156,176.061 201.421,172.245 C 198.649,168.357 194.797,162.669 193.357,158.493 C 191.953,154.245 192.961,150.105 192.889,147.585 C 192.601,144.993 190.801,143.049 192.204,143.553 C 193.644,144.021 196.669,146.433 201.421,150.645 L 201.421,150.645 C 200.557,145.137 200.845,141.789 202.141,140.457 C 203.365,139.125 207.505,140.709 209.269,142.833 C 211.069,144.921 212.041,148.089 212.581,152.769 L 212.581,152.769 C 213.05,141.969 213.733,136.137 214.237,134.985 C 214.67,133.941 214.993,145.029 215.893,145.893 C 216.829,146.469 218.377,139.701 219.709,138.801 C 221.041,137.865 222.408,138.693 223.236,140.457 C 223.776,142.113 223.344,146.181 223.488,148.773 C 223.633,151.293 223.74,153.453 223.956,155.397 L 223.956,155.397 C 225.9,149.889 227.881,146.109 229.896,143.769 C 231.84,141.465 234.828,140.241 235.8,141.645 C 236.664,142.941 236.556,146.217 235.332,151.617 L 235.332,151.617 C 238.644,146.937 241.02,144.596 242.46,144.741 C 243.792,144.921 244.188,147.261 243.648,152.301 L 243.648,152.301 C 245.7,150.861 247.104,150.105 248.4,150.429 C 249.588,150.609 250.921,151.257 250.74,153.742 C 250.488,156.226 249.228,159.97 246.961,165.118 L 246.961,165.118 C 252.793,161.41 256.536,159.934 258.337,160.834 C 260.137,161.77 259.849,164.758 257.616,170.338 L 257.616,170.338 C 261.648,168.79 264.385,168.142 265.68,168.682 C 266.976,169.186 266.904,170.59 265.464,173.182 L 265.464,173.182 C 269.819,171.706 272.484,171.203 273.743,171.526 C 274.895,171.85 274.5,173.11 272.555,175.306 L 272.555,175.306 C 283.534,174.478 289.763,174.586 291.779,175.774 C 293.651,176.926 291.095,179.014 283.967,182.182 L 283.967,182.182 C 286.055,182.398 287.099,182.794 287.494,183.37 C 287.854,183.946 287.171,184.558 285.839,185.494 L 285.839,185.494 C 288.179,185.674 289.151,186.358 289.151,187.402 C 289.044,188.374 287.783,189.85 285.371,191.686 L 285.371,191.686 C 288.216,190.858 289.403,191.11 288.935,192.154 C 288.395,193.234 284.867,196.366 282.527,198.094 C 280.115,199.642 277.559,200.866 274.715,201.622 L 274.715,201.622 C 277.163,203.602 278.927,205.042 280.151,206.374 C 281.267,207.598 282.743,208.426 281.807,209.002 C 280.727,209.434 278.351,209.506 274.247,209.218 L 274.247,209.218 C 278.423,209.722 281.446,210.622 283.715,212.062 C 285.839,213.538 287.53,216.706 287.278,217.534 C 286.882,218.11 281.77,214.69 281.806,215.878 C 281.878,217.066 286.522,222.358 287.278,224.41 C 287.854,226.318 287.35,227.362 285.37,227.254 C 283.211,226.966 278.062,224.23 274.931,223.222 C 271.835,222.25 269.027,221.566 266.651,221.314 L 266.651,221.314 C 267.227,223.654 266.723,225.13 264.743,225.598 C 262.764,226.03 259.523,225.598 255.023,224.158 L 255.023,224.158 C 257.363,226.426 259.451,229.378 261.431,233.41 C 263.41,237.406 266.903,246.118 266.651,247.882 C 266.219,249.394 260.639,243.13 259.055,243.13 C 257.363,243.166 258.37,248.494 256.931,247.882 C 255.419,247.126 253.078,244.174 250.055,238.882 L 250.055,238.882 C 248.578,242.842 246.887,243.994 244.835,242.194 C 242.747,240.43 240.37,235.714 237.707,228.19 L 237.707,228.19 C 235.978,227.254 234.719,226.642 233.927,226.066 C 233.063,225.49 232.667,225.094 232.739,224.878 L 232.739,224.878 C 231.011,230.134 229.139,232.186 227.267,231.034 C 225.395,229.81 223.379,225.382 221.363,217.75 L 221.363,217.75 C 217.511,219.082 214.955,219.406 213.3,218.722 C 211.644,218.002 211.14,216.31 211.644,213.502 L 211.644,213.502 C 206.604,214.834 203.112,215.59 200.484,215.626 C 198.001,215.662 196.524,214.978 196.452,213.718 L 196.452,213.718 C 190.44,214.762 185.4,214.87 181.045,214.438 C 176.689,213.79 170.568,212.386 170.605,210.658 C 170.569,208.966 174.097,206.95 181.045,204.466 L 181.045,204.466 C 174.204,198.994 170.929,195.142 171.072,192.622 C 171.288,190.066 174.744,189.13 181.98,189.526 L 181.98,189.526 C 179.532,186.79 177.876,184.342 177.012,182.182 C 176.148,179.95 175.86,178.15 176.544,176.494 L 176.544,176.494 C 169.487,169.51 165.852,164.902 165.636,162.526 C 165.42,160.114 168.48,160.078 175.104,162.274 L 175.104,162.274 C 172.188,157.558 171.396,154.678 172.728,153.49 C 174.132,152.302 179.028,152.482 182.952,155.146 C 186.696,157.702 190.872,163.858 195.049,168.898 C 199.116,173.866 203.005,179.122 207.109,184.81 L 207.109,184.81 C 207.9,183.549 208.692,182.289 209.484,180.993 L 209.484,180.993 z M 206.641,191.433 C 205.813,190.821 204.445,190.029 202.393,189.057 C 200.305,187.977 197.785,186.717 194.545,185.277 L 194.545,185.277 C 196.74,187.149 198.433,188.517 199.765,189.777 C 201.025,190.929 201.817,191.793 202.141,192.369 L 202.141,192.369 C 203.616,192.081 205.129,191.757 206.641,191.433 L 206.641,191.433 z M 252.648,206.841 C 254.088,206.877 255.672,206.877 257.4,206.841 C 259.092,206.805 260.856,206.733 262.837,206.625 L 262.837,206.625 L 265.465,209.001 L 265.465,209.001 C 263.16,208.893 260.893,208.605 258.805,208.281 C 256.572,207.885 254.665,207.453 252.648,206.841 L 252.648,206.841 z " style="fill-rule:evenodd;stroke:#000000;stroke-width:0.036;stroke-miterlimit:10" id="path137"/>
	<path d="M 210.456,179.589 C 208.765,178.401 207.072,176.997 205.236,174.837 C 203.364,172.605 201.276,169.725 199.548,167.025 C 197.676,164.253 195.768,161.517 194.796,158.961 C 193.932,156.333 194.148,153.957 194.075,151.833 C 193.859,149.709 193.752,147.765 193.607,146.145 L 193.607,146.145 C 195.911,147.801 197.783,149.097 199.079,150.177 C 200.34,151.221 201.168,152.013 201.42,152.553 L 201.42,152.553 C 201.672,154.569 202.5,157.665 204.048,162.273 C 205.561,166.773 207.648,172.497 210.456,179.589 L 210.456,179.589 z " style="fill:#fde005;fill-rule:evenodd;stroke:#000000;stroke-width:0.036;stroke-miterlimit:10" id="path139"/>
	<path d="M 212.112,179.337 C 211.428,178.905 210.6,177.249 209.484,174.369 C 208.333,171.381 206.568,165.693 205.452,162.021 C 204.156,158.313 203.257,155.577 202.608,152.553 C 201.924,149.457 201.6,145.605 201.924,143.769 C 202.283,141.789 203.148,140.925 204.516,141.177 C 205.776,141.321 208.224,143.085 209.484,144.957 C 210.6,146.757 210.852,148.809 211.644,152.085 C 212.472,155.217 213.336,159.537 214.236,163.929 C 215.028,168.321 215.532,172.965 216.144,178.149 L 216.144,178.149 C 214.092,173.433 212.868,170.877 212.328,170.337 C 211.681,169.761 212.868,173.253 212.833,174.837 C 212.797,176.385 212.509,177.753 212.112,179.337 L 212.112,179.337 z " style="fill:#fde005;fill-rule:evenodd;stroke:#000000;stroke-width:0.036;stroke-miterlimit:10" id="path141"/>
	<path d="M 226.08,176.493 C 226.404,174.657 226.908,173.253 227.736,171.993 C 228.492,170.661 230.688,168.465 230.833,169.149 C 230.904,169.869 230.041,172.029 228.24,176.025 L 228.24,176.025 L 231.301,176.961 L 231.301,176.961 C 231.66,174.837 232.165,173.289 232.956,172.461 C 233.713,171.561 235.585,171.597 235.801,171.741 C 235.945,171.885 233.893,172.317 233.677,173.18 C 233.353,174.08 233.389,175.088 233.929,176.744 L 233.929,176.744 L 237.492,172.928 L 235.801,178.148 L 235.801,178.148 C 237.385,178.148 238.321,178.292 239.149,178.868 C 239.834,179.372 240.193,180.164 240.086,181.244 L 240.086,181.244 C 244.262,178.364 246.997,176.492 248.149,176.024 C 249.301,175.448 247.933,176.96 246.961,177.932 C 245.845,178.868 244.152,179.948 241.74,181.46 L 241.74,181.46 C 241.596,182.504 241.633,183.188 241.992,183.368 C 242.316,183.476 243.144,182.144 243.648,182.432 C 243.936,182.612 243.648,185.276 244.585,185.024 C 245.557,184.736 248.185,181.424 249.553,180.776 C 250.741,180.056 251.532,180.128 251.929,180.992 L 251.929,180.992 C 250.452,181.532 249.229,182.252 248.401,183.152 C 247.537,184.052 246.925,185.024 246.71,186.212 L 246.71,186.212 C 247.825,187.22 249.014,187.94 250.273,188.372 C 251.461,188.732 254.305,188.336 254.089,188.588 C 253.729,188.732 249.625,188.912 248.868,189.524 C 248.112,190.028 249.264,191.144 249.553,191.9 C 249.697,192.692 248.797,193.736 250.057,194.06 C 251.245,194.168 253.585,193.772 256.933,192.872 L 256.933,192.872 C 256.177,193.7 255.385,194.276 254.557,194.744 C 253.657,195.14 252.757,195.428 251.713,195.464 L 251.713,195.464 C 252.685,196.544 253.152,197.624 253.116,198.56 C 253.009,199.46 251.461,200.144 251.244,201.152 C 250.956,202.052 251.028,203.132 251.461,204.248 L 251.461,204.248 C 250.165,204.248 249.192,204.14 248.148,203.78 C 247.104,203.384 245.628,203.348 245.52,202.124 C 245.304,200.828 245.916,198.848 247.212,196.184 L 247.212,196.184 C 245.232,198.056 243.899,198.92 242.928,198.776 C 241.955,198.56 241.488,197.48 241.524,195.248 L 241.524,195.248 C 239.041,196.22 237.816,196.292 237.709,195.464 C 237.528,194.564 238.608,192.872 240.805,190.244 L 240.805,190.244 C 239.617,190.532 238.933,190.244 238.897,189.524 C 238.825,188.66 239.257,187.58 240.337,185.744 L 240.337,185.744 C 237.313,188.012 235.729,188.84 235.585,188.372 C 235.368,187.796 239.545,183.116 239.364,182.648 C 239.148,182.18 237.492,183.08 234.396,185.492 L 234.396,185.492 C 235.404,182.684 235.8,180.776 235.584,180.056 C 235.26,179.3 234.359,179.444 232.739,180.776 L 232.739,180.776 C 231.551,179.3 230.579,178.796 229.427,178.868 C 228.275,178.94 227.158,179.804 226.078,181.46 L 226.078,181.46 C 225.179,180.164 224.278,179.696 223.234,180.056 C 222.118,180.344 220.786,182.936 219.922,183.368 C 219.058,183.692 218.374,183.296 218.014,182.18 L 218.014,182.18 C 216.826,183.62 215.854,184.34 214.953,184.34 C 214.017,184.268 212.758,182.828 212.577,181.964 C 212.254,180.992 213.046,179.696 213.298,178.616 C 213.478,177.392 213.586,176.132 213.766,174.836 L 213.766,174.836 C 214.918,177.644 215.71,179.588 216.142,180.524 C 216.502,181.46 216.502,181.46 216.142,180.524 L 216.142,180.524 C 216.934,179.192 217.438,177.932 217.798,176.744 C 217.942,175.412 217.869,173.252 218.014,173.18 C 218.194,173.072 218.482,175.124 218.734,176.024 C 218.915,176.816 218.95,177.572 218.986,178.148 L 218.986,178.148 C 219.886,177.068 220.499,176.492 221.11,176.276 C 221.578,176.024 221.831,178.076 222.298,176.744 C 222.766,175.34 223.197,172.28 223.737,167.708 L 223.737,167.708 C 224.496,170.625 225.288,173.541 226.08,176.493 L 226.08,176.493 z " style="fill:#a61e22;fill-rule:evenodd;stroke:#000000;stroke-width:0.036;stroke-miterlimit:10" id="path143"/>
	<path d="M 221.833,184.089 C 222.013,182.433 222.48,181.605 223.236,181.461 C 223.921,181.245 225.001,181.857 226.333,183.153 L 226.333,183.153 C 227.736,181.101 228.744,180.129 229.645,179.805 C 230.437,179.589 230.941,180.741 231.301,181.461 C 231.589,182.073 231.445,182.937 231.553,183.369 C 231.589,183.657 231.589,183.657 231.553,183.369 L 231.553,183.369 C 232.813,181.857 233.605,181.173 233.929,181.461 C 234.253,181.749 234.469,183.009 233.461,184.809 C 232.381,186.429 230.4,188.517 227.521,191.217 L 227.521,191.217 C 228.709,188.301 229.105,186.681 228.709,186.213 C 228.313,185.709 227.125,186.429 225.145,188.373 L 225.145,188.373 C 224.245,187.293 223.166,186.897 222.301,187.185 C 221.328,187.329 219.456,190.281 219.456,189.777 C 219.349,189.273 220.141,187.329 221.833,184.089 L 221.833,184.089 z " style="fill:#f47621;fill-rule:evenodd;stroke:#000000;stroke-width:0.036;stroke-miterlimit:10" id="path145"/>
	<path d="M 228.456,192.369 C 231.444,188.625 233.425,186.573 234.396,186.213 C 235.26,185.889 233.604,189.381 234.144,190.029 C 234.576,190.497 235.656,190.173 237.24,189.057 L 237.24,189.057 C 236.772,190.137 236.736,190.857 236.988,191.217 C 237.24,191.577 237.925,191.577 238.896,191.217 L 238.896,191.217 C 236.88,192.513 235.944,193.521 235.8,194.529 C 235.655,195.465 236.447,196.257 238.176,196.905 L 238.176,196.905 L 240.804,198.309 L 240.804,198.309 C 239.112,198.741 237.816,198.777 236.772,198.561 C 235.728,198.237 235.116,196.905 234.396,196.653 C 233.496,196.329 231.876,197.517 231.768,196.905 C 231.552,196.149 232.164,194.853 233.46,192.621 L 233.46,192.621 C 231.155,194.853 229.823,196.005 228.924,195.933 C 228.061,195.861 227.952,194.673 228.456,192.369 L 228.456,192.369 z " style="fill:#f47621;fill-rule:evenodd;stroke:#000000;stroke-width:0.036;stroke-miterlimit:10" id="path147"/>
	<path d="M 216.828,175.773 C 216.432,171.921 215.965,168.177 215.425,164.397 C 214.885,160.617 214.2,156.909 213.517,153.273 L 213.517,153.273 C 213.805,148.089 213.913,145.173 214.237,144.237 C 214.418,143.229 214.525,147.333 214.957,147.801 C 215.39,148.161 215.821,148.125 216.829,146.865 C 217.729,145.461 219.386,140.205 220.393,139.989 C 221.329,139.737 221.689,142.473 222.301,145.425 C 222.769,148.269 223.273,152.229 223.237,157.305 C 223.021,162.309 222.445,168.213 221.365,175.305 L 221.365,175.305 C 220.537,174.513 220.033,174.117 219.71,174.117 C 219.35,174.117 219.314,174.513 219.457,175.305 L 219.457,175.305 C 218.63,171.885 217.945,170.229 217.55,170.337 C 217.116,170.409 216.828,172.173 216.828,175.773 L 216.828,175.773 z " style="fill:#fde005;fill-rule:evenodd;stroke:#000000;stroke-width:0.036;stroke-miterlimit:10" id="path149"/>
	<path d="M 223.956,166.053 C 223.417,165.009 223.452,163.209 224.209,160.365 C 224.893,157.449 226.837,152.121 228.24,149.241 C 229.572,146.253 231.192,144.273 232.272,143.301 C 233.28,142.293 234.036,142.005 234.396,143.553 C 234.612,145.137 234.324,149.205 233.928,152.553 C 233.46,155.757 232.74,159.105 231.768,162.741 L 231.768,162.741 C 232.812,158.925 234,155.972 235.332,153.489 C 236.699,151.005 238.319,149.097 239.615,148.053 C 240.803,146.937 241.884,146.217 242.46,146.865 C 243,147.441 243.071,148.989 242.676,151.365 C 242.1,153.633 241.092,156.585 239.363,160.365 L 239.363,160.365 C 241.199,157.125 242.783,154.965 244.115,153.489 C 245.447,152.049 246.384,151.545 247.212,151.833 C 247.859,152.049 248.651,153.129 248.615,154.929 C 248.435,156.693 247.752,159.321 246.708,162.273 C 245.592,165.117 243.899,169.329 242.46,171.993 C 240.947,174.549 239.651,176.277 238.176,177.465 L 238.176,177.465 C 238.716,173.865 239.004,171.777 238.896,170.805 C 238.716,169.869 238.104,171.417 237.492,171.993 C 236.845,172.461 236.053,173.145 235.116,173.901 L 235.116,173.901 C 234.757,174.513 234.757,174.513 235.116,173.901 C 235.44,173.145 236.988,170.805 236.988,170.085 C 236.844,169.329 235.009,169.365 234.396,169.617 C 233.676,169.833 233.316,170.337 232.74,171.273 C 232.02,172.209 231.228,173.433 230.364,175.089 L 230.364,175.089 C 231.589,171.705 232.272,169.509 232.272,168.213 C 232.272,166.881 231.264,166.737 230.364,167.493 C 229.32,168.249 228.024,169.761 226.333,172.461 L 226.333,172.461 C 226.368,171.345 226.261,170.193 225.864,169.149 C 225.469,168.105 224.784,167.025 223.956,166.053 L 223.956,166.053 z " style="fill:#fde005;fill-rule:evenodd;stroke:#000000;stroke-width:0.036;stroke-miterlimit:10" id="path151"/>
	<path d="M 239.364,177.933 C 240.48,176.781 241.669,175.413 242.928,173.433 C 244.116,171.453 245.376,169.077 246.708,166.305 L 246.708,166.305 C 249.659,164.541 252.035,163.353 253.836,162.742 C 255.527,162.057 256.716,161.805 257.399,162.526 C 257.975,163.174 258.551,164.686 257.615,166.774 C 256.535,168.718 254.411,171.418 251.243,174.586 L 251.243,174.586 C 254.159,173.074 256.535,171.85 258.804,171.058 C 261,170.194 263.34,169.258 264.276,169.619 C 264.924,169.943 265.464,170.843 263.556,172.715 C 261.612,174.443 258.264,176.891 253.116,180.059 L 253.116,180.059 C 251.532,179.519 250.165,179.339 248.868,179.807 C 247.536,180.131 246.348,181.103 245.305,182.435 L 245.305,182.435 L 244.117,181.247 L 244.117,181.247 C 246.097,179.843 247.645,178.583 248.617,177.467 C 249.626,176.243 250.057,175.343 250.057,174.371 L 250.057,174.371 C 248.509,174.515 246.996,175.199 245.521,176.027 C 243.937,176.855 242.569,178.043 241.021,179.591 L 241.021,179.591 C 240.48,179.049 239.94,178.509 239.364,177.933 L 239.364,177.933 z " style="fill:#fde005;fill-rule:evenodd;stroke:#000000;stroke-width:0.036;stroke-miterlimit:10" id="path153"/>
	<path d="M 248.148,185.493 C 249.012,184.737 250.488,183.765 252.432,182.433 C 254.376,180.993 257.292,179.085 259.776,177.681 C 262.152,176.205 264.492,174.837 266.652,174.118 C 268.669,173.254 271.728,172.714 272.089,173.181 C 272.269,173.649 270.612,175.413 268.776,176.961 C 267.012,178.365 264.636,179.949 261.648,181.713 L 261.648,181.713 C 265.212,179.589 268.848,178.221 272.556,177.213 C 276.3,176.313 280.619,175.917 283.716,176.025 C 286.668,175.881 290.124,176.241 290.34,176.961 C 290.52,177.681 287.604,178.941 284.903,180.309 C 281.987,181.461 277.668,182.757 273.743,184.341 C 269.748,185.889 265.391,187.941 261.647,189.525 C 257.903,190.965 253.115,192.621 251.459,193.089 C 249.767,193.305 251.53,192.189 251.459,191.685 C 251.135,191.181 249.479,190.749 250.522,190.245 C 251.638,189.561 254.194,188.985 258.335,188.121 L 258.335,188.121 C 256.858,187.761 255.49,187.473 254.087,187.401 C 252.574,187.221 251.099,187.689 250.055,187.401 C 249.085,187.005 248.4,186.501 248.148,185.493 L 248.148,185.493 z " style="fill:#fde005;fill-rule:evenodd;stroke:#000000;stroke-width:0.036;stroke-miterlimit:10" id="path155"/>
	<path d="M 259.057,192.153 C 259.597,191.829 261.288,191.037 264.277,189.777 C 267.301,188.445 273.061,185.385 276.841,184.341 C 280.477,183.225 284.868,182.901 285.841,183.369 C 286.597,183.693 281.952,185.889 282.061,186.465 C 282.097,186.933 285.733,185.961 286.309,186.465 C 286.813,186.933 285.769,188.373 285.121,189.525 C 284.365,190.569 283.393,191.685 282.061,192.873 L 282.061,192.873 C 284.365,192.153 285.805,191.937 286.093,192.369 C 286.345,192.765 285.733,193.773 283.969,195.249 C 281.989,196.581 278.784,198.777 275.185,200.433 C 271.513,202.017 266.401,203.961 262.621,204.717 C 258.733,205.437 255.638,205.221 252.649,204.465 L 252.649,204.465 C 252.253,203.169 252.253,202.017 252.649,201.153 C 252.973,200.253 254.737,199.677 255.025,199.029 C 255.205,198.273 254.413,196.977 254.305,196.653 C 254.16,196.257 254.16,196.257 254.305,196.653 L 254.305,196.653 C 256.213,195.789 257.509,194.997 258.337,194.277 C 259.093,193.557 259.381,192.801 259.057,192.153 L 259.057,192.153 z " style="fill:#fde005;fill-rule:evenodd;stroke:#000000;stroke-width:0.036;stroke-miterlimit:10" id="path157"/>
	<path d="M 272.341,202.125 C 274.393,203.169 275.977,204.141 277.093,205.185 C 278.137,206.229 279.361,207.597 278.965,208.029 C 278.461,208.209 276.444,206.841 274.465,206.841 C 272.485,206.841 270.036,207.237 267.12,208.029 L 267.12,208.029 L 264.024,205.653 L 264.024,205.653 C 266.581,205.257 268.56,204.789 269.964,204.249 C 271.333,203.673 272.125,202.917 272.341,202.125 L 272.341,202.125 z " style="fill:#fde005;fill-rule:evenodd;stroke:#000000;stroke-width:0.036;stroke-miterlimit:10" id="path159"/>
	<path d="M 201.925,193.809 C 199.981,191.721 197.496,188.697 194.328,185.997 C 191.016,183.153 185.797,179.229 182.952,177.681 C 180.036,176.169 178.165,175.809 177.48,176.745 C 176.868,177.537 177.625,180.561 178.92,182.901 C 180.108,185.205 182.376,188.589 184.356,190.713 C 186.156,192.693 186.264,194.025 189.828,195.249 C 193.465,196.473 203.257,197.985 205.452,197.841 C 207.396,197.445 203.725,195.825 201.925,193.809 L 201.925,193.809 z " style="fill:#fde005;fill-rule:evenodd;stroke:#000000;stroke-width:0.036;stroke-miterlimit:10" id="path161"/>
	<path d="M 182.952,191.217 C 180.612,190.461 178.812,190.353 177.013,190.497 C 175.177,190.497 172.333,190.749 172.513,192.369 C 172.657,193.989 176.221,198.705 178.201,200.685 C 180.037,202.665 180.361,203.349 183.889,204.249 C 187.381,204.969 195.66,205.437 199.297,205.653 C 202.933,205.833 204.841,205.833 205.452,205.653 L 205.452,205.653 C 199.44,204.033 196.776,202.953 197.173,202.125 C 197.605,201.261 206.893,201.369 208.08,200.937 C 209.053,200.361 206.28,199.857 203.797,199.281 C 201.24,198.633 196.021,198.093 193.141,197.373 C 190.297,196.581 188.029,195.753 186.481,194.745 C 184.788,193.665 183.564,192.585 182.952,191.217 L 182.952,191.217 z " style="fill:#fde005;fill-rule:evenodd;stroke:#000000;stroke-width:0.036;stroke-miterlimit:10" id="path163"/>
	<path d="M 193.86,206.157 C 189.684,206.301 186.264,206.481 183.169,206.841 C 180.036,207.093 177.229,207.345 175.572,208.029 C 173.808,208.605 172.98,209.937 173.232,210.657 C 173.484,211.233 173.484,212.061 177.264,212.313 C 181.079,212.565 187.056,212.565 195.732,212.313 L 195.732,212.313 C 194.724,211.413 194.544,210.333 195.048,209.469 C 195.516,208.569 196.776,207.489 198.827,206.625 L 198.827,206.625 C 197.173,206.481 195.517,206.337 193.86,206.157 L 193.86,206.157 z " style="fill:#fde005;fill-rule:evenodd;stroke:#000000;stroke-width:0.036;stroke-miterlimit:10" id="path165"/>
	<path d="M 210.456,207.813 C 206.209,207.165 202.969,206.985 200.736,207.561 C 198.432,208.065 197.209,209.685 196.921,210.873 C 196.633,211.953 197.532,213.357 199.08,213.969 C 200.52,214.437 202.824,215.013 205.704,214.185 C 208.585,213.285 211.788,211.521 215.892,208.749 L 215.892,208.749 C 213.516,209.361 212.112,209.649 211.14,209.469 C 210.204,209.289 210.024,208.785 210.456,207.813 L 210.456,207.813 z " style="fill:#fde005;fill-rule:evenodd;stroke:#000000;stroke-width:0.036;stroke-miterlimit:10" id="path167"/>
	<path d="M 217.333,209.469 C 215.389,210.909 214.093,212.349 213.301,213.501 C 212.437,214.653 212.005,215.805 212.58,216.561 C 213.192,217.245 214.812,217.821 216.612,217.749 C 218.268,217.605 220.068,216.849 222.3,215.625 L 222.3,215.625 C 222.911,212.529 223.092,210.657 222.552,210.153 C 221.904,209.613 220.14,212.277 219.203,212.313 C 218.305,212.169 217.729,211.269 217.333,209.469 L 217.333,209.469 z " style="fill:#fde005;fill-rule:evenodd;stroke:#000000;stroke-width:0.036;stroke-miterlimit:10" id="path169"/>
	<path d="M 224.425,212.781 C 223.597,214.905 223.417,216.993 223.488,219.189 C 223.524,221.421 224.352,223.905 225.144,225.813 C 225.9,227.505 226.98,229.521 227.988,229.629 C 228.852,229.593 230.257,228.405 230.833,226.065 C 231.408,223.653 231.517,220.089 231.301,215.373 L 231.301,215.373 C 230.221,216.129 229.429,216.525 228.925,216.561 C 228.349,216.525 228.673,215.301 228.24,215.373 C 227.7,215.373 226.656,216.885 226.08,216.561 C 225.396,216.093 224.893,214.833 224.425,212.781 L 224.425,212.781 z " style="fill:#fde005;fill-rule:evenodd;stroke:#000000;stroke-width:0.036;stroke-miterlimit:10" id="path171"/>
	<path d="M 233.677,217.749 L 233.209,224.157 L 237.492,226.533 L 237.492,226.533 C 237.673,225.021 237.385,223.473 236.772,222.033 C 236.16,220.593 235.08,219.117 233.677,217.749 L 233.677,217.749 z " style="fill:#fde005;fill-rule:evenodd;stroke:#000000;stroke-width:0.036;stroke-miterlimit:10" id="path173"/>
	<path d="M 237.709,218.937 C 237.853,221.673 238.249,224.445 238.897,227.253 C 239.545,230.061 240.373,233.193 241.525,235.533 C 242.605,237.837 244.189,240.033 245.305,240.753 C 246.313,241.401 247.321,240.825 247.897,238.881 C 248.329,236.613 249.193,231.033 248.401,227.973 C 247.573,224.841 244.729,222.429 243.181,220.593 C 241.525,218.721 240.193,217.461 238.897,216.813 L 238.897,216.813 C 238.501,217.497 238.104,218.217 237.709,218.937 L 237.709,218.937 z " style="fill:#fde005;fill-rule:evenodd;stroke:#000000;stroke-width:0.036;stroke-miterlimit:10" id="path175"/>
	<path d="M 248.4,224.157 C 249.408,225.885 250.165,227.865 250.524,230.097 C 250.884,232.293 250.884,234.741 250.524,237.441 L 250.524,237.441 C 252.18,241.185 253.476,243.345 254.556,244.065 C 255.6,244.641 255.42,241.509 256.932,241.473 C 258.444,241.437 262.476,244.893 263.34,244.065 C 263.951,243.021 262.907,239.313 261.18,236.001 C 259.38,232.545 255.203,226.461 253.116,224.409 C 250.992,222.465 249.372,222.285 248.4,224.157 L 248.4,224.157 z " style="fill:#fde005;fill-rule:evenodd;stroke:#000000;stroke-width:0.036;stroke-miterlimit:10" id="path177"/>
	<path d="M 242.461,218.001 L 247.897,221.781 L 247.897,221.781 C 249.985,221.637 252.001,221.673 254.089,222.033 C 256.177,222.285 258.372,223.437 260.244,223.689 C 261.973,223.905 263.808,223.617 264.492,223.221 C 265.104,222.681 265.104,221.565 263.808,220.845 C 262.404,220.125 259.92,219.369 256.212,218.721 L 256.212,218.721 C 257.76,218.469 259.92,218.757 262.836,219.189 C 265.716,219.585 269.928,220.521 273.527,221.565 C 276.947,222.537 281.916,225.417 283.715,225.345 C 285.406,225.201 284.614,222.573 283.967,221.061 C 283.103,219.585 279.863,217.317 279.683,216.345 C 279.611,215.301 283.139,215.265 283.463,214.689 C 283.57,213.861 282.671,213.069 280.618,212.313 C 278.459,211.413 273.526,210.513 270.682,210.153 C 267.766,209.829 266.578,210.693 263.086,210.405 C 259.414,210.009 254.878,209.145 249.082,207.813 L 249.082,207.813 C 254.806,210.009 257.397,211.305 257.397,211.845 C 257.253,212.205 248.29,210.405 248.397,210.873 C 248.433,211.341 257.613,214.257 257.613,214.905 C 257.433,215.481 249.981,214.077 247.893,214.437 C 245.805,214.689 245.697,216.417 245.049,216.561 C 244.257,216.561 243.753,214.365 243.393,214.689 C 242.965,214.977 242.604,215.949 242.461,218.001 L 242.461,218.001 z " style="fill:#fde005;fill-rule:evenodd;stroke:#000000;stroke-width:0.036;stroke-miterlimit:10" id="path179"/>
	<path d="M 206.425,186.213 C 202.969,181.173 199.872,176.637 196.452,172.461 C 192.996,168.213 189.396,164.001 186.48,161.085 C 183.564,158.061 181.476,155.649 179.388,154.677 C 177.156,153.597 174.312,153.309 173.916,154.929 C 173.483,156.549 174.563,159.501 177.012,164.181 L 177.012,164.181 C 174.203,163.101 172.044,162.417 170.388,162.273 C 168.588,162.021 166.212,161.085 167.292,163.209 C 168.443,165.297 171.792,169.257 177.48,175.089 L 177.48,175.089 C 177.192,173.613 178.488,173.613 181.512,175.089 C 184.535,176.529 189.108,179.445 195.516,183.837 L 195.516,183.837 C 197.928,185.097 200.088,186.033 202.14,187.185 C 204.156,188.265 207.504,190.137 207.612,190.029 C 207.648,189.633 202.536,186.177 202.392,185.493 C 202.213,184.809 203.509,185.097 206.425,186.213 L 206.425,186.213 z " style="fill:#fde005;fill-rule:evenodd;stroke:#000000;stroke-width:0.036;stroke-miterlimit:10" id="path181"/>
	<path d="M 211.393,182.181 C 210.637,182.829 210.169,183.549 209.989,184.341 C 209.809,184.989 210.71,186.321 210.205,186.681 C 209.558,187.041 208.262,187.041 206.174,186.681 L 206.174,186.681 C 208.945,187.941 210.17,188.877 209.989,190.029 C 209.773,191.073 205.561,191.973 204.985,192.873 C 204.373,193.665 205.597,193.953 206.425,194.997 C 207.253,195.969 209.521,198.021 209.737,198.777 C 209.809,199.389 208.981,199.569 207.109,199.029 L 207.109,199.029 C 209.989,199.929 211.285,200.685 211.141,201.153 C 210.889,201.477 207.433,201.765 205.921,201.873 C 204.265,202.053 201.456,201.585 201.673,202.125 C 201.78,202.449 205.885,203.781 206.893,204.465 C 207.721,205.077 206.533,206.085 207.361,206.373 C 208.189,206.661 211.033,205.761 211.861,206.157 C 212.581,206.481 210.385,208.029 211.645,208.281 C 212.833,208.425 215.281,207.849 218.989,206.841 L 218.989,206.841 C 218.197,208.893 218.197,210.045 218.989,210.153 C 219.781,210.225 221.149,209.361 223.489,207.561 L 223.489,207.561 C 224.714,211.737 225.794,214.113 226.586,214.689 C 227.27,215.193 227.774,210.729 228.241,210.873 C 228.674,210.945 228.745,214.509 229.429,215.157 C 230.041,215.553 230.905,213.789 232.021,214.185 C 233.029,214.581 234.217,215.769 235.585,217.749 L 235.585,217.749 C 235.944,215.985 236.629,215.085 237.492,214.905 C 238.356,214.761 240.156,216.417 240.805,216.813 C 241.309,217.101 241.309,217.101 240.805,216.813 L 240.805,216.813 C 241.021,214.545 241.489,213.249 242.209,212.781 C 242.856,212.241 243.505,213.933 244.837,213.969 C 246.097,213.897 248.221,213.069 249.805,213.033 C 251.281,212.961 254.377,213.969 253.837,213.717 C 253.045,213.249 246.925,211.737 246.024,211.125 C 245.088,210.513 247.572,210.189 248.616,210.153 C 249.553,210.045 252.684,211.305 252.18,210.873 C 251.568,210.225 245.736,207.849 245.52,207.093 C 245.268,206.337 247.14,206.229 250.992,206.625 L 250.992,206.625 C 248.076,205.329 246.24,204.357 245.053,203.277 C 243.901,202.197 243.541,201.297 244.116,200.433 L 244.116,200.433 L 241.272,199.497 L 241.272,199.497 C 239.041,199.785 237.384,199.785 236.304,199.497 C 235.152,199.065 235.44,197.733 234.648,197.589 C 233.676,197.481 231.912,198.849 231.3,198.777 C 230.652,198.561 230.579,197.769 231.084,196.401 L 231.084,196.401 C 229.319,197.265 228.132,197.301 227.52,196.653 C 226.872,195.897 226.908,193.521 227.052,192.153 C 226.98,190.677 227.232,189.381 227.52,188.121 L 227.52,188.121 C 226.584,189.201 225.792,189.705 225.144,189.777 C 224.424,189.669 224.568,188.049 223.488,188.373 C 222.264,188.733 219.133,191.253 218.268,191.901 C 217.368,192.477 217.368,192.477 218.268,191.901 L 218.268,191.901 C 218.268,190.893 218.304,189.741 218.52,188.589 C 218.665,187.293 218.844,186.213 219.204,184.809 L 219.204,184.809 L 217.333,184.809 L 217.333,184.809 C 216.36,185.709 215.461,185.889 214.488,185.493 C 213.444,185.061 212.509,183.909 211.393,182.181 L 211.393,182.181 z " style="fill:#8d2828;fill-rule:evenodd;stroke:#000000;stroke-width:0.036;stroke-miterlimit:10" id="path183"/>
</g>
<metadata><rdf:RDF><cc:Work><dc:format>image/svg+xml</dc:format><dc:type rdf:resource="http://purl.org/dc/dcmitype/StillImage"/><cc:license rdf:resource="http://creativecommons.org/licenses/publicdomain/"/><dc:publisher><cc:Agent rdf:about="http://openclipart.org/"><dc:title>Open Clip Art Library</dc:title></cc:Agent></dc:publisher><dc:title>GG Gaillardia aristata</dc:title><dc:date>2006-09-25T10:28:06</dc:date><dc:description>Colored blanket flower.</dc:description><dc:source>http://openclipart.org/detail/214/gg-gaillardia-aristata-by-gerald_g</dc:source><dc:creator><cc:Agent><dc:title>Gerald_G</dc:title></cc:Agent></dc:creator><dc:subject><rdf:Bag><rdf:li>clip art</rdf:li><rdf:li>clipart</rdf:li><rdf:li>color</rdf:li><rdf:li>flower</rdf:li><rdf:li>nature</rdf:li><rdf:li>outline</rdf:li><rdf:li>plant</rdf:li><rdf:li>wild</rdf:li></rdf:Bag></dc:subject></cc:Work><cc:License rdf:about="http://creativecommons.org/licenses/publicdomain/"><cc:permits rdf:resource="http://creativecommons.org/ns#Reproduction"/><cc:permits rdf:resource="http://creativecommons.org/ns#Distribution"/><cc:permits rdf:resource="http://creativecommons.org/ns#DerivativeWorks"/></cc:License></rdf:RDF></metadata></svg>
