<?xml version="1.0" encoding="utf-8"?>
<!-- Generator: Adobe Illustrator 15.0.0, SVG Export Plug-In . SVG Version: 6.00 Build 0)  -->
<svg version="1.2" baseProfile="tiny" id="Layer_1" xmlns="http://www.w3.org/2000/svg" xmlns:xlink="http://www.w3.org/1999/xlink"
	 x="0px" y="0px" width="361.049px" height="272.071px" viewBox="0 0 361.049 272.071" overflow="inherit" xml:space="preserve">
<g>
	<path fill="none" stroke="#d94362" stroke-width="2" stroke-miterlimit="10" d="M96.051,249.792
		c6.183,2.427,11.98,7.896,12.793,14.822"/>
	<path fill="none" stroke="#d94362" stroke-width="2" stroke-miterlimit="10" d="M2.224,203.499c9.441,0,57.75-1.05,57.75,14.898
		C59.974,238.225,1,225.864,1,251.571c0,25.336,74.458,19.5,89.038,19.5"/>
	<path fill="none" stroke="#d94362" stroke-width="2" stroke-miterlimit="10" d="M283.251,136.868
		c24.051,24.051,48.101,48.101,72.151,72.151c3.382,4.729,3.157,9.306-0.673,13.729c-14.502,14.672-29.005,29.345-43.507,44.018
		c-4.597,4.599-12.958,4.445-17.403,0c-22.86-23.81-45.888-47.468-69.229-70.809"/>
	<path fill="none" stroke="#d94362" stroke-width="2" stroke-miterlimit="10" d="M165.68,137.047
		c-23.819-23.819-47.852-47.428-71.99-70.923c-4.966-4.967-4.727-12.676,0-17.402c14.502-14.502,29.005-29.004,43.507-43.506
		c5.324-5.322,12.365-5.038,17.403,0c22.892,24.714,46.133,49.135,69.955,72.955"/>
	<path fill="none" stroke="#d94362" stroke-width="2" stroke-miterlimit="10" d="M282.4,251.571
		c4.948-4.948,9.896-9.896,14.845-14.844"/>
	<path fill="none" stroke="#d94362" stroke-width="2" stroke-miterlimit="10" d="M256.659,225.104
		c5.136-5.137,10.271-10.272,15.407-15.408"/>
	<path fill="none" stroke="#d94362" stroke-width="2" stroke-miterlimit="10" d="M108.192,77.726
		c5.612-5.612,11.224-11.225,16.836-16.837"/>
	<path fill="none" stroke="#d94362" stroke-width="2" stroke-miterlimit="10" d="M134.478,103.648
		c5.257-5.256,10.515-10.513,15.771-15.77"/>
	<path fill="none" stroke="#ffffde" stroke-width="2" stroke-miterlimit="10" d="M116.835,185.891
		c49.887-49.887,99.773-99.774,149.661-149.661c19.521,19.521,39.043,39.042,58.564,58.563
		c-49.569,49.903-99.139,99.805-148.708,149.708c-29.004,8.642-58.009,17.282-87.014,25.924
		C98.505,242.247,107.67,214.069,116.835,185.891L116.835,185.891z"/>
	<path fill="none" stroke="#ffffde" stroke-width="2" stroke-miterlimit="10" d="M324.818,94.793
		c10.845-10.844,21.69-21.689,32.535-32.533c3.594-4.338,3.594-8.677,0-13.016c-15.184-15.183-30.367-30.367-45.55-45.55
		c-4.338-3.592-8.676-3.592-13.014,0C287.945,14.54,277.1,25.385,266.255,36.23"/>
	<path fill="none" stroke="#ffffde" stroke-width="2" stroke-miterlimit="10" d="M308.942,78.918
		c-47.097,46.493-94.194,92.986-141.291,139.479c2.502,8.686,5.004,17.371,7.507,26.057"/>
	<path fill="none" stroke="#ffffde" stroke-width="2" stroke-miterlimit="10" d="M116.594,185.891
		c8.419,1.912,16.838,3.824,25.257,5.736c46.573-46.694,93.146-93.388,139.719-140.082"/>
	<path fill="none" stroke="#ffffde" stroke-width="2" stroke-miterlimit="10" d="M141.547,192.293c0,8.701,0,17.402,0,26.104
		c8.701,0,17.402,0,26.104,0"/>
</g>
</svg>
